<svg width="550" height="395" viewBox="0 0 550 395" fill="none" xmlns="http://www.w3.org/2000/svg">
<path d="M93.7458 67.1424H549.393" stroke="#BBBBBB" stroke-dasharray="6"/>
<path d="M92.0583 127.954H547.705" stroke="#BBBBBB" stroke-dasharray="6"/>
<path d="M92.0583 188.765H547.705" stroke="#BBBBBB" stroke-dasharray="6"/>
<path d="M92.0583 246.197H547.705" stroke="#BBBBBB" stroke-dasharray="6"/>
<path d="M92.0583 303.63H547.705" stroke="#BBBBBB" stroke-dasharray="6"/>
<path d="M92.0583 361.063H547.705" stroke="#BBBBBB" stroke-dasharray="6"/>
<path d="M92.0582 6.69296H547.705" stroke="#BBBBBB" stroke-dasharray="6"/>
<path d="M50.3312 4.42353C50.7559 4.42353 51.1479 4.48419 51.5072 4.60553C51.8665 4.72686 52.1745 4.89953 52.4312 5.12353C52.6925 5.34753 52.8955 5.61819 53.0402 5.93553C53.1849 6.25286 53.2572 6.60519 53.2572 6.99253C53.2572 7.30986 53.2152 7.59453 53.1312 7.84653C53.0519 8.09386 52.9352 8.31319 52.7812 8.50453C52.6319 8.69119 52.4499 8.84986 52.2352 8.98053C52.0205 9.11119 51.7802 9.21619 51.5142 9.29553C52.1675 9.46819 52.6575 9.75753 52.9842 10.1635C53.3155 10.5695 53.4812 11.0782 53.4812 11.6895C53.4812 12.1515 53.3925 12.5669 53.2152 12.9355C53.0425 13.3042 52.8045 13.6192 52.5012 13.8805C52.1979 14.1372 51.8432 14.3355 51.4372 14.4755C51.0359 14.6109 50.6042 14.6785 50.1422 14.6785C49.6102 14.6785 49.1552 14.6132 48.7772 14.4825C48.3992 14.3472 48.0795 14.1629 47.8182 13.9295C47.5569 13.6962 47.3422 13.4209 47.1742 13.1035C47.0062 12.7815 46.8639 12.4339 46.7472 12.0605L47.2792 11.8365C47.3772 11.7945 47.4752 11.7735 47.5732 11.7735C47.6665 11.7735 47.7482 11.7945 47.8182 11.8365C47.8929 11.8739 47.9489 11.9345 47.9862 12.0185C47.9955 12.0372 48.0049 12.0582 48.0142 12.0815C48.0235 12.1002 48.0329 12.1212 48.0422 12.1445C48.1075 12.2799 48.1869 12.4339 48.2802 12.6065C48.3735 12.7745 48.4995 12.9332 48.6582 13.0825C48.8169 13.2319 49.0129 13.3579 49.2462 13.4605C49.4842 13.5632 49.7782 13.6145 50.1282 13.6145C50.4782 13.6145 50.7839 13.5585 51.0452 13.4465C51.3112 13.3299 51.5305 13.1805 51.7032 12.9985C51.8805 12.8165 52.0135 12.6135 52.1022 12.3895C52.1909 12.1655 52.2352 11.9439 52.2352 11.7245C52.2352 11.4539 52.1979 11.2065 52.1232 10.9825C52.0532 10.7585 51.9225 10.5649 51.7312 10.4015C51.5445 10.2382 51.2832 10.1099 50.9472 10.0165C50.6159 9.92319 50.1889 9.87653 49.6662 9.87653V8.97353C50.0909 8.96886 50.4525 8.92219 50.7512 8.83353C51.0545 8.74486 51.3019 8.62353 51.4932 8.46953C51.6845 8.31553 51.8222 8.13119 51.9062 7.91653C51.9949 7.70186 52.0392 7.46386 52.0392 7.20253C52.0392 6.91319 51.9925 6.66119 51.8992 6.44653C51.8105 6.23186 51.6869 6.05453 51.5282 5.91453C51.3695 5.77453 51.1805 5.66953 50.9612 5.59953C50.7465 5.52953 50.5132 5.49453 50.2612 5.49453C50.0092 5.49453 49.7759 5.53186 49.5612 5.60653C49.3465 5.68119 49.1552 5.78619 48.9872 5.92153C48.8239 6.05219 48.6862 6.21086 48.5742 6.39753C48.4622 6.57953 48.3782 6.77786 48.3222 6.99253C48.2849 7.12786 48.2289 7.22586 48.1542 7.28653C48.0795 7.34719 47.9839 7.37753 47.8672 7.37753C47.8439 7.37753 47.8182 7.37753 47.7902 7.37753C47.7669 7.37286 47.7389 7.36819 47.7062 7.36353L47.0552 7.25153C47.1205 6.79419 47.2465 6.39053 47.4332 6.04053C47.6199 5.68586 47.8555 5.38953 48.1402 5.15153C48.4295 4.91353 48.7585 4.73386 49.1272 4.61253C49.5005 4.48653 49.9019 4.42353 50.3312 4.42353ZM61.6866 9.55453C61.6866 10.4319 61.5909 11.1925 61.3996 11.8365C61.2129 12.4759 60.9563 13.0055 60.6296 13.4255C60.3029 13.8455 59.9156 14.1582 59.4676 14.3635C59.0243 14.5689 58.5483 14.6715 58.0396 14.6715C57.5263 14.6715 57.0479 14.5689 56.6046 14.3635C56.1659 14.1582 55.7833 13.8455 55.4566 13.4255C55.1299 13.0055 54.8733 12.4759 54.6866 11.8365C54.4999 11.1925 54.4066 10.4319 54.4066 9.55453C54.4066 8.67719 54.4999 7.91653 54.6866 7.27253C54.8733 6.62853 55.1299 6.09653 55.4566 5.67653C55.7833 5.25186 56.1659 4.93686 56.6046 4.73153C57.0479 4.52619 57.5263 4.42353 58.0396 4.42353C58.5483 4.42353 59.0243 4.52619 59.4676 4.73153C59.9156 4.93686 60.3029 5.25186 60.6296 5.67653C60.9563 6.09653 61.2129 6.62853 61.3996 7.27253C61.5909 7.91653 61.6866 8.67719 61.6866 9.55453ZM60.3916 9.55453C60.3916 8.78919 60.3263 8.14753 60.1956 7.62953C60.0696 7.10686 59.8969 6.68686 59.6776 6.36953C59.4629 6.05219 59.2133 5.82586 58.9286 5.69053C58.6439 5.55053 58.3476 5.48053 58.0396 5.48053C57.7316 5.48053 57.4353 5.55053 57.1506 5.69053C56.8659 5.82586 56.6163 6.05219 56.4016 6.36953C56.1869 6.68686 56.0143 7.10686 55.8836 7.62953C55.7576 8.14753 55.6946 8.78919 55.6946 9.55453C55.6946 10.3199 55.7576 10.9615 55.8836 11.4795C56.0143 11.9975 56.1869 12.4152 56.4016 12.7325C56.6163 13.0499 56.8659 13.2785 57.1506 13.4185C57.4353 13.5539 57.7316 13.6215 58.0396 13.6215C58.3476 13.6215 58.6439 13.5539 58.9286 13.4185C59.2133 13.2785 59.4629 13.0499 59.6776 12.7325C59.8969 12.4152 60.0696 11.9975 60.1956 11.4795C60.3263 10.9615 60.3916 10.3199 60.3916 9.55453Z" fill="#8D9AA9"/>
<path d="M72.1233 361.95C72.1233 362.827 72.0277 363.588 71.8363 364.232C71.6497 364.871 71.393 365.401 71.0663 365.821C70.7397 366.241 70.3523 366.554 69.9043 366.759C69.461 366.964 68.985 367.067 68.4763 367.067C67.963 367.067 67.4847 366.964 67.0413 366.759C66.6027 366.554 66.22 366.241 65.8933 365.821C65.5667 365.401 65.31 364.871 65.1233 364.232C64.9367 363.588 64.8433 362.827 64.8433 361.95C64.8433 361.073 64.9367 360.312 65.1233 359.668C65.31 359.024 65.5667 358.492 65.8933 358.072C66.22 357.647 66.6027 357.332 67.0413 357.127C67.4847 356.922 67.963 356.819 68.4763 356.819C68.985 356.819 69.461 356.922 69.9043 357.127C70.3523 357.332 70.7397 357.647 71.0663 358.072C71.393 358.492 71.6497 359.024 71.8363 359.668C72.0277 360.312 72.1233 361.073 72.1233 361.95ZM70.8283 361.95C70.8283 361.185 70.763 360.543 70.6323 360.025C70.5063 359.502 70.3337 359.082 70.1143 358.765C69.8997 358.448 69.65 358.221 69.3653 358.086C69.0807 357.946 68.7843 357.876 68.4763 357.876C68.1683 357.876 67.872 357.946 67.5873 358.086C67.3027 358.221 67.053 358.448 66.8383 358.765C66.6237 359.082 66.451 359.502 66.3203 360.025C66.1943 360.543 66.1313 361.185 66.1313 361.95C66.1313 362.715 66.1943 363.357 66.3203 363.875C66.451 364.393 66.6237 364.811 66.8383 365.128C67.053 365.445 67.3027 365.674 67.5873 365.814C67.872 365.949 68.1683 366.017 68.4763 366.017C68.7843 366.017 69.0807 365.949 69.3653 365.814C69.65 365.674 69.8997 365.445 70.1143 365.128C70.3337 364.811 70.5063 364.393 70.6323 363.875C70.763 363.357 70.8283 362.715 70.8283 361.95Z" fill="#8D9AA9"/>
<path d="M51.7815 300.203C51.7815 300.38 51.7255 300.527 51.6135 300.644C51.5015 300.756 51.3125 300.812 51.0465 300.812H47.8965L47.4345 303.444C47.9572 303.332 48.4402 303.276 48.8835 303.276C49.4062 303.276 49.8659 303.353 50.2625 303.507C50.6639 303.661 50.9999 303.873 51.2705 304.144C51.5412 304.415 51.7442 304.734 51.8795 305.103C52.0195 305.472 52.0895 305.873 52.0895 306.307C52.0895 306.839 51.9962 307.32 51.8095 307.749C51.6229 308.178 51.3662 308.547 51.0395 308.855C50.7175 309.158 50.3372 309.392 49.8985 309.555C49.4599 309.718 48.9862 309.8 48.4775 309.8C48.1835 309.8 47.9012 309.77 47.6305 309.709C47.3599 309.653 47.1079 309.576 46.8745 309.478C46.6412 309.38 46.4242 309.268 46.2235 309.142C46.0229 309.016 45.8455 308.883 45.6915 308.743L46.0695 308.211C46.1535 308.09 46.2655 308.029 46.4055 308.029C46.4942 308.029 46.5969 308.066 46.7135 308.141C46.8349 308.211 46.9795 308.29 47.1475 308.379C47.3155 308.468 47.5115 308.549 47.7355 308.624C47.9642 308.694 48.2349 308.729 48.5475 308.729C48.8975 308.729 49.2125 308.673 49.4925 308.561C49.7725 308.449 50.0105 308.29 50.2065 308.085C50.4072 307.875 50.5612 307.625 50.6685 307.336C50.7759 307.047 50.8295 306.722 50.8295 306.363C50.8295 306.05 50.7829 305.768 50.6895 305.516C50.6009 305.264 50.4632 305.049 50.2765 304.872C50.0945 304.695 49.8659 304.557 49.5905 304.459C49.3152 304.361 48.9932 304.312 48.6245 304.312C48.3725 304.312 48.1112 304.333 47.8405 304.375C47.5699 304.417 47.2899 304.485 47.0005 304.578L46.2165 304.347L47.0285 299.657H51.7815V300.203Z" fill="#8D9AA9"/>
<path d="M47.0905 190.538H49.2465V183.699C49.2465 183.494 49.2535 183.286 49.2675 183.076L47.4755 184.609C47.4289 184.646 47.3822 184.674 47.3355 184.693C47.2889 184.707 47.2445 184.714 47.2025 184.714C47.1325 184.714 47.0695 184.7 47.0135 184.672C46.9575 184.639 46.9155 184.602 46.8875 184.56L46.4955 184.021L49.4775 181.438H50.4925V190.538H52.4665V191.49H47.0905V190.538ZM59.9229 182.005C59.9229 182.182 59.8669 182.329 59.7549 182.446C59.6429 182.558 59.4539 182.614 59.1879 182.614H56.0379L55.5759 185.246C56.0986 185.134 56.5816 185.078 57.0249 185.078C57.5476 185.078 58.0073 185.155 58.4039 185.309C58.8053 185.463 59.1413 185.675 59.4119 185.946C59.6826 186.217 59.8856 186.536 60.0209 186.905C60.1609 187.274 60.2309 187.675 60.2309 188.109C60.2309 188.641 60.1376 189.122 59.9509 189.551C59.7643 189.98 59.5076 190.349 59.1809 190.657C58.8589 190.96 58.4786 191.194 58.0399 191.357C57.6013 191.52 57.1276 191.602 56.6189 191.602C56.3249 191.602 56.0426 191.572 55.7719 191.511C55.5013 191.455 55.2493 191.378 55.0159 191.28C54.7826 191.182 54.5656 191.07 54.3649 190.944C54.1643 190.818 53.9869 190.685 53.8329 190.545L54.2109 190.013C54.2949 189.892 54.4069 189.831 54.5469 189.831C54.6356 189.831 54.7383 189.868 54.8549 189.943C54.9763 190.013 55.1209 190.092 55.2889 190.181C55.4569 190.27 55.6529 190.351 55.8769 190.426C56.1056 190.496 56.3763 190.531 56.6889 190.531C57.0389 190.531 57.3539 190.475 57.6339 190.363C57.9139 190.251 58.1519 190.092 58.3479 189.887C58.5486 189.677 58.7026 189.427 58.8099 189.138C58.9173 188.849 58.9709 188.524 58.9709 188.165C58.9709 187.852 58.9243 187.57 58.8309 187.318C58.7423 187.066 58.6046 186.851 58.4179 186.674C58.2359 186.497 58.0073 186.359 57.7319 186.261C57.4566 186.163 57.1346 186.114 56.7659 186.114C56.5139 186.114 56.2526 186.135 55.9819 186.177C55.7113 186.219 55.4313 186.287 55.1419 186.38L54.3579 186.149L55.1699 181.459H59.9229V182.005Z" fill="#8D9AA9"/>
<path d="M47.0905 249.637H49.2465V242.798C49.2465 242.593 49.2535 242.385 49.2675 242.175L47.4755 243.708C47.4289 243.745 47.3822 243.773 47.3355 243.792C47.2889 243.806 47.2445 243.813 47.2025 243.813C47.1325 243.813 47.0695 243.799 47.0135 243.771C46.9575 243.738 46.9155 243.701 46.8875 243.659L46.4955 243.12L49.4775 240.537H50.4925V249.637H52.4665V250.589H47.0905V249.637ZM60.7769 245.577C60.7769 246.454 60.6813 247.215 60.4899 247.859C60.3033 248.498 60.0466 249.028 59.7199 249.448C59.3933 249.868 59.0059 250.181 58.5579 250.386C58.1146 250.591 57.6386 250.694 57.1299 250.694C56.6166 250.694 56.1383 250.591 55.6949 250.386C55.2563 250.181 54.8736 249.868 54.5469 249.448C54.2203 249.028 53.9636 248.498 53.7769 247.859C53.5903 247.215 53.4969 246.454 53.4969 245.577C53.4969 244.7 53.5903 243.939 53.7769 243.295C53.9636 242.651 54.2203 242.119 54.5469 241.699C54.8736 241.274 55.2563 240.959 55.6949 240.754C56.1383 240.549 56.6166 240.446 57.1299 240.446C57.6386 240.446 58.1146 240.549 58.5579 240.754C59.0059 240.959 59.3933 241.274 59.7199 241.699C60.0466 242.119 60.3033 242.651 60.4899 243.295C60.6813 243.939 60.7769 244.7 60.7769 245.577ZM59.4819 245.577C59.4819 244.812 59.4166 244.17 59.2859 243.652C59.1599 243.129 58.9873 242.709 58.7679 242.392C58.5533 242.075 58.3036 241.848 58.0189 241.713C57.7343 241.573 57.4379 241.503 57.1299 241.503C56.8219 241.503 56.5256 241.573 56.2409 241.713C55.9563 241.848 55.7066 242.075 55.4919 242.392C55.2773 242.709 55.1046 243.129 54.9739 243.652C54.8479 244.17 54.7849 244.812 54.7849 245.577C54.7849 246.342 54.8479 246.984 54.9739 247.502C55.1046 248.02 55.2773 248.438 55.4919 248.755C55.7066 249.072 55.9563 249.301 56.2409 249.441C56.5256 249.576 56.8219 249.644 57.1299 249.644C57.4379 249.644 57.7343 249.576 58.0189 249.441C58.3036 249.301 58.5533 249.072 58.7679 248.755C58.9873 248.438 59.1599 248.02 59.2859 247.502C59.4166 246.984 59.4819 246.342 59.4819 245.577Z" fill="#8D9AA9"/>
<rect x="109.783" y="6" width="42.1895" height="355.588" rx="3" fill="#F8827D"/>
<path d="M124.388 50.4743C124.388 49.8676 124.475 49.3076 124.648 48.7943C124.821 48.2809 125.068 47.8409 125.388 47.4743C125.708 47.1009 126.095 46.8109 126.548 46.6043C127.001 46.3976 127.505 46.2943 128.058 46.2943C128.511 46.2943 128.918 46.3543 129.278 46.4743C129.631 46.5876 129.945 46.7543 130.218 46.9743C130.485 47.1876 130.711 47.4476 130.898 47.7543C131.085 48.0609 131.235 48.4043 131.348 48.7843C131.595 47.8509 132.008 47.1509 132.588 46.6843C133.168 46.2109 133.895 45.9743 134.768 45.9743C135.428 45.9743 136.021 46.1009 136.548 46.3543C137.075 46.6009 137.525 46.9409 137.898 47.3743C138.265 47.8076 138.548 48.3143 138.748 48.8943C138.941 49.4676 139.038 50.0843 139.038 50.7443C139.038 51.5043 138.945 52.1543 138.758 52.6943C138.565 53.2343 138.301 53.6909 137.968 54.0643C137.635 54.4376 137.241 54.7443 136.788 54.9843C136.328 55.2243 135.831 55.4276 135.298 55.5943L134.978 54.8343C134.918 54.6943 134.888 54.5543 134.888 54.4143C134.888 54.2809 134.918 54.1643 134.978 54.0643C135.031 53.9576 135.118 53.8776 135.238 53.8243C135.265 53.8109 135.295 53.7976 135.328 53.7843C135.355 53.7709 135.385 53.7576 135.418 53.7443C135.611 53.6509 135.831 53.5376 136.078 53.4043C136.318 53.2709 136.545 53.0909 136.758 52.8643C136.971 52.6376 137.151 52.3576 137.298 52.0243C137.445 51.6843 137.518 51.2643 137.518 50.7643C137.518 50.2643 137.438 49.8276 137.278 49.4543C137.111 49.0743 136.898 48.7609 136.638 48.5143C136.378 48.2609 136.088 48.0709 135.768 47.9443C135.448 47.8176 135.131 47.7543 134.818 47.7543C134.431 47.7543 134.078 47.8076 133.758 47.9143C133.438 48.0143 133.161 48.2009 132.928 48.4743C132.695 48.7409 132.511 49.1143 132.378 49.5943C132.245 50.0676 132.178 50.6776 132.178 51.4243L130.888 51.4243C130.881 50.8176 130.815 50.3009 130.688 49.8743C130.561 49.4409 130.388 49.0876 130.168 48.8143C129.948 48.5409 129.685 48.3443 129.378 48.2243C129.071 48.0976 128.731 48.0343 128.358 48.0343C127.945 48.0343 127.585 48.1009 127.278 48.2343C126.971 48.3609 126.718 48.5376 126.518 48.7643C126.318 48.9909 126.168 49.2609 126.068 49.5743C125.968 49.8809 125.918 50.2143 125.918 50.5743C125.918 50.9343 125.971 51.2676 126.078 51.5743C126.185 51.8809 126.335 52.1543 126.528 52.3943C126.715 52.6276 126.941 52.8243 127.208 52.9843C127.468 53.1443 127.751 53.2643 128.058 53.3443C128.251 53.3976 128.391 53.4776 128.478 53.5843C128.565 53.6909 128.608 53.8276 128.608 53.9943C128.608 54.0276 128.608 54.0643 128.608 54.1043C128.601 54.1376 128.595 54.1776 128.588 54.2243L128.428 55.1543C127.775 55.0609 127.198 54.8809 126.698 54.6143C126.191 54.3476 125.768 54.0109 125.428 53.6043C125.088 53.1909 124.831 52.7209 124.658 52.1943C124.478 51.6609 124.388 51.0876 124.388 50.4743ZM131.718 34.1984C132.971 34.1984 134.058 34.3351 134.978 34.6084C135.891 34.8751 136.648 35.2417 137.248 35.7084C137.848 36.1751 138.295 36.7284 138.588 37.3684C138.881 38.0017 139.028 38.6817 139.028 39.4084C139.028 40.1417 138.881 40.8251 138.588 41.4584C138.295 42.0851 137.848 42.6317 137.248 43.0984C136.648 43.5651 135.891 43.9317 134.978 44.1984C134.058 44.4651 132.971 44.5984 131.718 44.5984C130.465 44.5984 129.378 44.4651 128.458 44.1984C127.538 43.9317 126.778 43.5651 126.178 43.0984C125.571 42.6317 125.121 42.0851 124.828 41.4584C124.535 40.8251 124.388 40.1417 124.388 39.4084C124.388 38.6817 124.535 38.0017 124.828 37.3684C125.121 36.7284 125.571 36.1751 126.178 35.7084C126.778 35.2417 127.538 34.8751 128.458 34.6084C129.378 34.3351 130.465 34.1984 131.718 34.1984ZM131.718 36.0484C130.625 36.0484 129.708 36.1417 128.968 36.3284C128.221 36.5084 127.621 36.7551 127.168 37.0684C126.715 37.3751 126.391 37.7317 126.198 38.1384C125.998 38.5451 125.898 38.9684 125.898 39.4084C125.898 39.8484 125.998 40.2717 126.198 40.6784C126.391 41.0851 126.715 41.4417 127.168 41.7484C127.621 42.0551 128.221 42.3017 128.968 42.4884C129.708 42.6684 130.625 42.7584 131.718 42.7584C132.811 42.7584 133.728 42.6684 134.468 42.4884C135.208 42.3017 135.805 42.0551 136.258 41.7484C136.711 41.4417 137.038 41.0851 137.238 40.6784C137.431 40.2717 137.528 39.8484 137.528 39.4084C137.528 38.9684 137.431 38.5451 137.238 38.1384C137.038 37.7317 136.711 37.3751 136.258 37.0684C135.805 36.7551 135.208 36.5084 134.468 36.3284C133.728 36.1417 132.811 36.0484 131.718 36.0484ZM128.008 26.6526C128.568 26.6526 129.071 26.7392 129.518 26.9126C129.958 27.0859 130.331 27.3192 130.638 27.6126C130.938 27.8992 131.168 28.2359 131.328 28.6226C131.488 29.0092 131.568 29.4126 131.568 29.8326C131.568 30.2859 131.488 30.7059 131.328 31.0926C131.168 31.4726 130.938 31.8059 130.638 32.0926C130.331 32.3792 129.958 32.6026 129.518 32.7626C129.071 32.9226 128.568 33.0026 128.008 33.0026C127.435 33.0026 126.925 32.9226 126.478 32.7626C126.031 32.6026 125.655 32.3792 125.348 32.0926C125.041 31.8059 124.808 31.4726 124.648 31.0926C124.488 30.7059 124.408 30.2859 124.408 29.8326C124.408 29.3859 124.488 28.9692 124.648 28.5826C124.808 28.1892 125.041 27.8526 125.348 27.5726C125.655 27.2859 126.031 27.0626 126.478 26.9026C126.925 26.7359 127.435 26.6526 128.008 26.6526ZM128.008 28.0426C127.568 28.0426 127.195 28.0892 126.888 28.1826C126.581 28.2759 126.331 28.4059 126.138 28.5726C125.938 28.7326 125.795 28.9226 125.708 29.1426C125.621 29.3559 125.578 29.5859 125.578 29.8326C125.578 30.0792 125.621 30.3126 125.708 30.5326C125.795 30.7459 125.938 30.9326 126.138 31.0926C126.331 31.2526 126.581 31.3792 126.888 31.4726C127.195 31.5592 127.568 31.6026 128.008 31.6026C128.441 31.6026 128.811 31.5592 129.118 31.4726C129.418 31.3792 129.665 31.2526 129.858 31.0926C130.045 30.9326 130.181 30.7459 130.268 30.5326C130.348 30.3126 130.388 30.0792 130.388 29.8326C130.388 29.5859 130.348 29.3559 130.268 29.1426C130.181 28.9226 130.045 28.7326 129.858 28.5726C129.665 28.4059 129.418 28.2759 129.118 28.1826C128.811 28.0892 128.441 28.0426 128.008 28.0426ZM124.908 21.6426C124.795 21.5559 124.708 21.4659 124.648 21.3726C124.581 21.2726 124.548 21.1426 124.548 20.9826L124.548 19.7026L138.588 30.1726C138.675 30.2392 138.745 30.3192 138.798 30.4126C138.851 30.5059 138.878 30.6159 138.878 30.7426L138.878 32.0626L124.908 21.6426ZM135.498 18.7326C136.058 18.7326 136.558 18.8192 136.998 18.9926C137.438 19.1659 137.811 19.3992 138.118 19.6926C138.418 19.9792 138.648 20.3159 138.808 20.7026C138.968 21.0826 139.048 21.4826 139.048 21.9026C139.048 22.3559 138.968 22.7759 138.808 23.1626C138.648 23.5426 138.418 23.8759 138.118 24.1626C137.811 24.4492 137.438 24.6726 136.998 24.8326C136.558 24.9926 136.058 25.0726 135.498 25.0726C134.925 25.0726 134.415 24.9926 133.968 24.8326C133.515 24.6726 133.135 24.4492 132.828 24.1626C132.521 23.8759 132.288 23.5426 132.128 23.1626C131.968 22.7759 131.888 22.3559 131.888 21.9026C131.888 21.4559 131.968 21.0392 132.128 20.6526C132.288 20.2659 132.521 19.9292 132.828 19.6426C133.135 19.3559 133.515 19.1326 133.968 18.9726C134.415 18.8126 134.925 18.7326 135.498 18.7326ZM135.498 20.1126C135.058 20.1126 134.685 20.1592 134.378 20.2526C134.065 20.3459 133.811 20.4759 133.618 20.6426C133.425 20.8026 133.285 20.9926 133.198 21.2126C133.111 21.4259 133.068 21.6559 133.068 21.9026C133.068 22.1492 133.111 22.3826 133.198 22.6026C133.285 22.8159 133.425 23.0026 133.618 23.1626C133.811 23.3226 134.065 23.4492 134.378 23.5426C134.685 23.6292 135.058 23.6726 135.498 23.6726C135.931 23.6726 136.298 23.6292 136.598 23.5426C136.898 23.4492 137.145 23.3226 137.338 23.1626C137.525 23.0026 137.661 22.8159 137.748 22.6026C137.828 22.3826 137.868 22.1492 137.868 21.9026C137.868 21.6559 137.828 21.4259 137.748 21.2126C137.661 20.9926 137.525 20.8026 137.338 20.6426C137.145 20.4759 136.898 20.3459 136.598 20.2526C136.298 20.1592 135.931 20.1126 135.498 20.1126Z" fill="#793734"/>
<path d="M99.9439 381.341C99.9019 381.411 99.8576 381.465 99.8109 381.502C99.7642 381.535 99.7036 381.551 99.6289 381.551C99.5496 381.551 99.4562 381.511 99.3489 381.432C99.2462 381.353 99.1132 381.266 98.9499 381.173C98.7912 381.075 98.5976 380.986 98.3689 380.907C98.1449 380.828 97.8719 380.788 97.5499 380.788C97.2466 380.788 96.9782 380.83 96.7449 380.914C96.5116 380.993 96.3156 381.103 96.1569 381.243C96.0029 381.383 95.8862 381.549 95.8069 381.74C95.7276 381.927 95.6879 382.13 95.6879 382.349C95.6879 382.629 95.7556 382.862 95.8909 383.049C96.0309 383.231 96.2129 383.387 96.4369 383.518C96.6656 383.649 96.9222 383.763 97.2069 383.861C97.4962 383.954 97.7902 384.052 98.0889 384.155C98.3922 384.258 98.6862 384.374 98.9709 384.505C99.2602 384.631 99.5169 384.792 99.7409 384.988C99.9696 385.184 100.152 385.424 100.287 385.709C100.427 385.994 100.497 386.344 100.497 386.759C100.497 387.198 100.422 387.611 100.273 387.998C100.124 388.381 99.9042 388.714 99.6149 388.999C99.3302 389.284 98.9779 389.508 98.5579 389.671C98.1426 389.834 97.6689 389.916 97.1369 389.916C96.4882 389.916 95.8956 389.799 95.3589 389.566C94.8269 389.328 94.3719 389.008 93.9939 388.607L94.3859 387.963C94.4232 387.912 94.4676 387.87 94.5189 387.837C94.5749 387.8 94.6356 387.781 94.7009 387.781C94.7989 387.781 94.9109 387.835 95.0369 387.942C95.1629 388.045 95.3192 388.159 95.5059 388.285C95.6972 388.411 95.9259 388.528 96.1919 388.635C96.4626 388.738 96.7916 388.789 97.1789 388.789C97.5009 388.789 97.7879 388.745 98.0399 388.656C98.2919 388.567 98.5042 388.444 98.6769 388.285C98.8542 388.122 98.9896 387.928 99.0829 387.704C99.1762 387.48 99.2229 387.23 99.2229 386.955C99.2229 386.652 99.1529 386.404 99.0129 386.213C98.8776 386.017 98.6979 385.854 98.4739 385.723C98.2499 385.592 97.9932 385.483 97.7039 385.394C97.4192 385.301 97.1252 385.207 96.8219 385.114C96.5232 385.016 96.2292 384.904 95.9399 384.778C95.6552 384.652 95.4009 384.489 95.1769 384.288C94.9529 384.087 94.7709 383.838 94.6309 383.539C94.4956 383.236 94.4279 382.862 94.4279 382.419C94.4279 382.064 94.4956 381.721 94.6309 381.39C94.7709 381.059 94.9716 380.765 95.2329 380.508C95.4942 380.251 95.8162 380.046 96.1989 379.892C96.5862 379.738 97.0296 379.661 97.5289 379.661C98.0889 379.661 98.5999 379.75 99.0619 379.927C99.5239 380.104 99.9276 380.361 100.273 380.697L99.9439 381.341ZM104.778 382.601C105.296 382.601 105.763 382.687 106.178 382.86C106.598 383.033 106.953 383.278 107.242 383.595C107.536 383.912 107.76 384.297 107.914 384.75C108.073 385.198 108.152 385.7 108.152 386.255C108.152 386.815 108.073 387.319 107.914 387.767C107.76 388.215 107.536 388.598 107.242 388.915C106.953 389.232 106.598 389.477 106.178 389.65C105.763 389.818 105.296 389.902 104.778 389.902C104.26 389.902 103.791 389.818 103.371 389.65C102.956 389.477 102.601 389.232 102.307 388.915C102.013 388.598 101.787 388.215 101.628 387.767C101.469 387.319 101.39 386.815 101.39 386.255C101.39 385.7 101.469 385.198 101.628 384.75C101.787 384.297 102.013 383.912 102.307 383.595C102.601 383.278 102.956 383.033 103.371 382.86C103.791 382.687 104.26 382.601 104.778 382.601ZM104.778 388.929C105.478 388.929 106.001 388.696 106.346 388.229C106.691 387.758 106.864 387.102 106.864 386.262C106.864 385.417 106.691 384.759 106.346 384.288C106.001 383.817 105.478 383.581 104.778 383.581C104.423 383.581 104.115 383.642 103.854 383.763C103.593 383.884 103.373 384.059 103.196 384.288C103.023 384.517 102.893 384.799 102.804 385.135C102.72 385.466 102.678 385.842 102.678 386.262C102.678 386.682 102.72 387.058 102.804 387.389C102.893 387.72 103.023 388 103.196 388.229C103.373 388.453 103.593 388.626 103.854 388.747C104.115 388.868 104.423 388.929 104.778 388.929ZM110.64 382.713V387.235C110.64 387.772 110.763 388.187 111.011 388.481C111.258 388.775 111.631 388.922 112.131 388.922C112.495 388.922 112.838 388.836 113.16 388.663C113.482 388.49 113.778 388.25 114.049 387.942V382.713H115.295V389.804H114.553C114.375 389.804 114.263 389.718 114.217 389.545L114.119 388.782C113.811 389.123 113.465 389.398 113.083 389.608C112.7 389.813 112.261 389.916 111.767 389.916C111.379 389.916 111.036 389.853 110.738 389.727C110.444 389.596 110.196 389.414 109.996 389.181C109.795 388.948 109.643 388.665 109.541 388.334C109.443 388.003 109.394 387.636 109.394 387.235V382.713H110.64ZM119.364 389.916C118.804 389.916 118.373 389.76 118.069 389.447C117.771 389.134 117.621 388.684 117.621 388.096V383.756H116.767C116.693 383.756 116.63 383.735 116.578 383.693C116.527 383.646 116.501 383.576 116.501 383.483V382.986L117.663 382.839L117.95 380.648C117.96 380.578 117.99 380.522 118.041 380.48C118.093 380.433 118.158 380.41 118.237 380.41H118.867V382.853H120.897V383.756H118.867V388.012C118.867 388.311 118.94 388.532 119.084 388.677C119.229 388.822 119.416 388.894 119.644 388.894C119.775 388.894 119.887 388.878 119.98 388.845C120.078 388.808 120.162 388.768 120.232 388.726C120.302 388.684 120.361 388.647 120.407 388.614C120.459 388.577 120.503 388.558 120.54 388.558C120.606 388.558 120.664 388.598 120.715 388.677L121.079 389.272C120.865 389.473 120.606 389.631 120.302 389.748C119.999 389.86 119.686 389.916 119.364 389.916ZM122.312 389.804V379.493H123.558V383.665C123.861 383.343 124.197 383.086 124.566 382.895C124.935 382.699 125.359 382.601 125.84 382.601C126.227 382.601 126.568 382.666 126.862 382.797C127.161 382.923 127.408 383.105 127.604 383.343C127.805 383.576 127.956 383.859 128.059 384.19C128.162 384.521 128.213 384.888 128.213 385.289V389.804H126.967V385.289C126.967 384.752 126.843 384.337 126.596 384.043C126.353 383.744 125.98 383.595 125.476 383.595C125.107 383.595 124.762 383.684 124.44 383.861C124.123 384.038 123.829 384.279 123.558 384.582V389.804H122.312ZM134.234 384.169H134.745C134.922 384.169 135.062 384.148 135.165 384.106C135.272 384.059 135.373 383.982 135.466 383.875L138.805 380.095C138.908 379.978 139.006 379.897 139.099 379.85C139.197 379.799 139.321 379.773 139.47 379.773H140.625L136.803 384.092C136.705 384.199 136.612 384.29 136.523 384.365C136.439 384.44 136.348 384.5 136.25 384.547C136.381 384.589 136.495 384.652 136.593 384.736C136.691 384.82 136.794 384.925 136.901 385.051L140.891 389.804H139.715C139.626 389.804 139.552 389.797 139.491 389.783C139.43 389.769 139.377 389.75 139.33 389.727C139.288 389.704 139.248 389.673 139.211 389.636C139.174 389.599 139.136 389.559 139.099 389.517L135.634 385.534C135.583 385.478 135.534 385.431 135.487 385.394C135.445 385.352 135.394 385.317 135.333 385.289C135.277 385.261 135.209 385.242 135.13 385.233C135.055 385.219 134.962 385.212 134.85 385.212H134.234V389.804H132.883V379.773H134.234V384.169ZM144.575 382.601C145.093 382.601 145.559 382.687 145.975 382.86C146.395 383.033 146.749 383.278 147.039 383.595C147.333 383.912 147.557 384.297 147.711 384.75C147.869 385.198 147.949 385.7 147.949 386.255C147.949 386.815 147.869 387.319 147.711 387.767C147.557 388.215 147.333 388.598 147.039 388.915C146.749 389.232 146.395 389.477 145.975 389.65C145.559 389.818 145.093 389.902 144.575 389.902C144.057 389.902 143.588 389.818 143.168 389.65C142.752 389.477 142.398 389.232 142.104 388.915C141.81 388.598 141.583 388.215 141.425 387.767C141.266 387.319 141.187 386.815 141.187 386.255C141.187 385.7 141.266 385.198 141.425 384.75C141.583 384.297 141.81 383.912 142.104 383.595C142.398 383.278 142.752 383.033 143.168 382.86C143.588 382.687 144.057 382.601 144.575 382.601ZM144.575 388.929C145.275 388.929 145.797 388.696 146.143 388.229C146.488 387.758 146.661 387.102 146.661 386.262C146.661 385.417 146.488 384.759 146.143 384.288C145.797 383.817 145.275 383.581 144.575 383.581C144.22 383.581 143.912 383.642 143.651 383.763C143.389 383.884 143.17 384.059 142.993 384.288C142.82 384.517 142.689 384.799 142.601 385.135C142.517 385.466 142.475 385.842 142.475 386.262C142.475 386.682 142.517 387.058 142.601 387.389C142.689 387.72 142.82 388 142.993 388.229C143.17 388.453 143.389 388.626 143.651 388.747C143.912 388.868 144.22 388.929 144.575 388.929ZM149.358 389.804V382.713H150.072C150.207 382.713 150.301 382.739 150.352 382.79C150.403 382.841 150.438 382.93 150.457 383.056L150.541 384.162C150.784 383.667 151.082 383.282 151.437 383.007C151.796 382.727 152.216 382.587 152.697 382.587C152.893 382.587 153.07 382.61 153.229 382.657C153.388 382.699 153.535 382.76 153.67 382.839L153.509 383.77C153.476 383.887 153.404 383.945 153.292 383.945C153.227 383.945 153.126 383.924 152.991 383.882C152.856 383.835 152.667 383.812 152.424 383.812C151.99 383.812 151.626 383.938 151.332 384.19C151.043 384.442 150.8 384.808 150.604 385.289V389.804H149.358ZM157.686 382.601C158.111 382.601 158.503 382.673 158.862 382.818C159.221 382.958 159.532 383.163 159.793 383.434C160.054 383.7 160.257 384.031 160.402 384.428C160.551 384.82 160.626 385.268 160.626 385.772C160.626 385.968 160.605 386.099 160.563 386.164C160.521 386.229 160.442 386.262 160.325 386.262H155.607C155.616 386.71 155.677 387.1 155.789 387.431C155.901 387.762 156.055 388.04 156.251 388.264C156.447 388.483 156.68 388.649 156.951 388.761C157.222 388.868 157.525 388.922 157.861 388.922C158.174 388.922 158.442 388.887 158.666 388.817C158.895 388.742 159.091 388.663 159.254 388.579C159.417 388.495 159.553 388.418 159.66 388.348C159.772 388.273 159.868 388.236 159.947 388.236C160.05 388.236 160.129 388.276 160.185 388.355L160.535 388.81C160.381 388.997 160.197 389.16 159.982 389.3C159.767 389.435 159.536 389.547 159.289 389.636C159.046 389.725 158.794 389.79 158.533 389.832C158.272 389.879 158.013 389.902 157.756 389.902C157.266 389.902 156.813 389.82 156.398 389.657C155.987 389.489 155.63 389.246 155.327 388.929C155.028 388.607 154.795 388.21 154.627 387.739C154.459 387.268 154.375 386.726 154.375 386.115C154.375 385.62 154.45 385.158 154.599 384.729C154.753 384.3 154.972 383.929 155.257 383.616C155.542 383.299 155.889 383.051 156.3 382.874C156.711 382.692 157.173 382.601 157.686 382.601ZM157.714 383.518C157.112 383.518 156.638 383.693 156.293 384.043C155.948 384.388 155.733 384.869 155.649 385.485H159.506C159.506 385.196 159.466 384.932 159.387 384.694C159.308 384.451 159.191 384.244 159.037 384.071C158.883 383.894 158.694 383.758 158.47 383.665C158.251 383.567 157.999 383.518 157.714 383.518ZM167.303 389.804H166.75C166.629 389.804 166.531 389.785 166.456 389.748C166.381 389.711 166.332 389.631 166.309 389.51L166.169 388.852C165.982 389.02 165.8 389.172 165.623 389.307C165.446 389.438 165.259 389.55 165.063 389.643C164.867 389.732 164.657 389.799 164.433 389.846C164.214 389.893 163.969 389.916 163.698 389.916C163.423 389.916 163.164 389.879 162.921 389.804C162.683 389.725 162.475 389.608 162.298 389.454C162.121 389.3 161.978 389.106 161.871 388.873C161.768 388.635 161.717 388.355 161.717 388.033C161.717 387.753 161.794 387.485 161.948 387.228C162.102 386.967 162.349 386.736 162.69 386.535C163.035 386.334 163.486 386.171 164.041 386.045C164.596 385.914 165.275 385.84 166.078 385.821V385.268C166.078 384.717 165.959 384.302 165.721 384.022C165.488 383.737 165.14 383.595 164.678 383.595C164.375 383.595 164.118 383.635 163.908 383.714C163.703 383.789 163.523 383.875 163.369 383.973C163.22 384.066 163.089 384.153 162.977 384.232C162.87 384.307 162.762 384.344 162.655 384.344C162.571 384.344 162.496 384.323 162.431 384.281C162.37 384.234 162.321 384.178 162.284 384.113L162.06 383.714C162.452 383.336 162.874 383.054 163.327 382.867C163.78 382.68 164.281 382.587 164.832 382.587C165.229 382.587 165.581 382.652 165.889 382.783C166.197 382.914 166.456 383.096 166.666 383.329C166.876 383.562 167.035 383.845 167.142 384.176C167.249 384.507 167.303 384.871 167.303 385.268V389.804ZM164.069 389.041C164.288 389.041 164.489 389.02 164.671 388.978C164.853 388.931 165.023 388.868 165.182 388.789C165.345 388.705 165.499 388.605 165.644 388.488C165.793 388.371 165.938 388.238 166.078 388.089V386.612C165.504 386.631 165.016 386.677 164.615 386.752C164.214 386.822 163.887 386.915 163.635 387.032C163.383 387.149 163.199 387.286 163.082 387.445C162.97 387.604 162.914 387.781 162.914 387.977C162.914 388.164 162.944 388.325 163.005 388.46C163.066 388.595 163.147 388.707 163.25 388.796C163.353 388.88 163.474 388.943 163.614 388.985C163.754 389.022 163.906 389.041 164.069 389.041Z" fill="#8D9AA9"/>
<path d="M2.9762 390.124H1.6182V380.093H2.9762V390.124ZM5.33746 390.124V383.033H6.07946C6.25679 383.033 6.36879 383.119 6.41546 383.292L6.51346 384.062C6.82146 383.721 7.16446 383.446 7.54246 383.236C7.92512 383.026 8.36612 382.921 8.86546 382.921C9.25279 382.921 9.59346 382.986 9.88746 383.117C10.1861 383.243 10.4335 383.425 10.6295 383.663C10.8301 383.896 10.9818 384.178 11.0845 384.51C11.1871 384.841 11.2385 385.207 11.2385 385.609V390.124H9.99246V385.609C9.99246 385.072 9.86879 384.657 9.62146 384.363C9.37879 384.064 9.00546 383.915 8.50146 383.915C8.13279 383.915 7.78746 384.003 7.46546 384.181C7.14812 384.358 6.85412 384.598 6.58346 384.902V390.124H5.33746ZM17.828 384.293C17.7907 384.344 17.7534 384.384 17.716 384.412C17.6787 384.44 17.625 384.454 17.555 384.454C17.485 384.454 17.408 384.426 17.324 384.37C17.2447 384.309 17.142 384.244 17.016 384.174C16.89 384.104 16.736 384.041 16.554 383.985C16.3767 383.924 16.1574 383.894 15.896 383.894C15.5507 383.894 15.245 383.957 14.979 384.083C14.713 384.204 14.489 384.381 14.307 384.615C14.1297 384.848 13.9944 385.13 13.901 385.462C13.8124 385.793 13.768 386.164 13.768 386.575C13.768 387.004 13.817 387.387 13.915 387.723C14.013 388.054 14.1507 388.334 14.328 388.563C14.5054 388.787 14.72 388.959 14.972 389.081C15.2287 389.197 15.5157 389.256 15.833 389.256C16.1364 389.256 16.386 389.221 16.582 389.151C16.778 389.076 16.9414 388.994 17.072 388.906C17.2027 388.817 17.31 388.738 17.394 388.668C17.478 388.593 17.562 388.556 17.646 388.556C17.7534 388.556 17.8327 388.595 17.884 388.675L18.234 389.13C17.926 389.508 17.541 389.785 17.079 389.963C16.617 390.135 16.1294 390.222 15.616 390.222C15.1727 390.222 14.7597 390.14 14.377 389.977C13.999 389.813 13.67 389.578 13.39 389.27C13.11 388.957 12.8884 388.574 12.725 388.122C12.5664 387.669 12.487 387.153 12.487 386.575C12.487 386.047 12.5594 385.56 12.704 385.112C12.8534 384.664 13.068 384.279 13.348 383.957C13.6327 383.63 13.9827 383.376 14.398 383.194C14.8134 383.012 15.2894 382.921 15.826 382.921C16.3207 382.921 16.7594 383.002 17.142 383.166C17.5247 383.324 17.863 383.551 18.157 383.845L17.828 384.293ZM22.2075 382.921C22.6321 382.921 23.0241 382.993 23.3835 383.138C23.7428 383.278 24.0531 383.483 24.3145 383.754C24.5758 384.02 24.7788 384.351 24.9235 384.748C25.0728 385.14 25.1475 385.588 25.1475 386.092C25.1475 386.288 25.1265 386.418 25.0845 386.484C25.0425 386.549 24.9631 386.582 24.8465 386.582H20.1285C20.1378 387.03 20.1985 387.419 20.3105 387.751C20.4225 388.082 20.5765 388.36 20.7725 388.584C20.9685 388.803 21.2018 388.969 21.4725 389.081C21.7431 389.188 22.0465 389.242 22.3825 389.242C22.6951 389.242 22.9635 389.207 23.1875 389.137C23.4161 389.062 23.6121 388.983 23.7755 388.899C23.9388 388.815 24.0741 388.738 24.1815 388.668C24.2935 388.593 24.3891 388.556 24.4685 388.556C24.5711 388.556 24.6505 388.595 24.7065 388.675L25.0565 389.13C24.9025 389.316 24.7181 389.48 24.5035 389.62C24.2888 389.755 24.0578 389.867 23.8105 389.956C23.5678 390.044 23.3158 390.11 23.0545 390.152C22.7931 390.198 22.5341 390.222 22.2775 390.222C21.7875 390.222 21.3348 390.14 20.9195 389.977C20.5088 389.809 20.1518 389.566 19.8485 389.249C19.5498 388.927 19.3165 388.53 19.1485 388.059C18.9805 387.587 18.8965 387.046 18.8965 386.435C18.8965 385.94 18.9711 385.478 19.1205 385.049C19.2745 384.619 19.4938 384.248 19.7785 383.936C20.0631 383.618 20.4108 383.371 20.8215 383.194C21.2321 383.012 21.6941 382.921 22.2075 382.921ZM22.2355 383.838C21.6335 383.838 21.1598 384.013 20.8145 384.363C20.4691 384.708 20.2545 385.189 20.1705 385.805H24.0275C24.0275 385.515 23.9878 385.252 23.9085 385.014C23.8291 384.771 23.7125 384.563 23.5585 384.391C23.4045 384.213 23.2155 384.078 22.9915 383.985C22.7721 383.887 22.5201 383.838 22.2355 383.838ZM26.6166 390.124V383.033H27.3586C27.5359 383.033 27.6479 383.119 27.6946 383.292L27.7926 384.062C28.1006 383.721 28.4436 383.446 28.8216 383.236C29.2042 383.026 29.6452 382.921 30.1446 382.921C30.5319 382.921 30.8726 382.986 31.1666 383.117C31.4652 383.243 31.7126 383.425 31.9086 383.663C32.1092 383.896 32.2609 384.178 32.3636 384.51C32.4662 384.841 32.5176 385.207 32.5176 385.609V390.124H31.2716V385.609C31.2716 385.072 31.1479 384.657 30.9006 384.363C30.6579 384.064 30.2846 383.915 29.7806 383.915C29.4119 383.915 29.0666 384.003 28.7446 384.181C28.4272 384.358 28.1332 384.598 27.8626 384.902V390.124H26.6166ZM36.4191 390.236C35.8591 390.236 35.4275 390.079 35.1241 389.767C34.8255 389.454 34.6761 389.004 34.6761 388.416V384.076H33.8221C33.7475 384.076 33.6845 384.055 33.6331 384.013C33.5818 383.966 33.5561 383.896 33.5561 383.803V383.306L34.7181 383.159L35.0051 380.968C35.0145 380.898 35.0448 380.842 35.0961 380.8C35.1475 380.753 35.2128 380.73 35.2921 380.73H35.9221V383.173H37.9521V384.076H35.9221V388.332C35.9221 388.63 35.9945 388.852 36.1391 388.997C36.2838 389.141 36.4705 389.214 36.6991 389.214C36.8298 389.214 36.9418 389.197 37.0351 389.165C37.1331 389.127 37.2171 389.088 37.2871 389.046C37.3571 389.004 37.4155 388.966 37.4621 388.934C37.5135 388.896 37.5578 388.878 37.5951 388.878C37.6605 388.878 37.7188 388.917 37.7701 388.997L38.1341 389.592C37.9195 389.792 37.6605 389.951 37.3571 390.068C37.0538 390.18 36.7411 390.236 36.4191 390.236ZM40.7531 383.033V390.124H39.5071V383.033H40.7531ZM41.0331 380.807C41.0331 380.928 41.0074 381.042 40.9561 381.15C40.9094 381.252 40.8441 381.346 40.7601 381.43C40.6808 381.509 40.5874 381.572 40.4801 381.619C40.3728 381.665 40.2584 381.689 40.1371 381.689C40.0158 381.689 39.9014 381.665 39.7941 381.619C39.6914 381.572 39.5981 381.509 39.5141 381.43C39.4348 381.346 39.3718 381.252 39.3251 381.15C39.2784 381.042 39.2551 380.928 39.2551 380.807C39.2551 380.685 39.2784 380.571 39.3251 380.464C39.3718 380.352 39.4348 380.256 39.5141 380.177C39.5981 380.093 39.6914 380.027 39.7941 379.981C39.9014 379.934 40.0158 379.911 40.1371 379.911C40.2584 379.911 40.3728 379.934 40.4801 379.981C40.5874 380.027 40.6808 380.093 40.7601 380.177C40.8441 380.256 40.9094 380.352 40.9561 380.464C41.0074 380.571 41.0331 380.685 41.0331 380.807ZM41.9274 383.033H42.9494C43.0474 383.033 43.1291 383.058 43.1944 383.11C43.2597 383.161 43.3064 383.222 43.3344 383.292L45.1334 387.856C45.1987 388.024 45.2501 388.192 45.2874 388.36C45.3247 388.528 45.3597 388.693 45.3924 388.857C45.4297 388.693 45.4694 388.528 45.5114 388.36C45.5534 388.192 45.6071 388.024 45.6724 387.856L47.4924 383.292C47.5204 383.217 47.5647 383.156 47.6254 383.11C47.6907 383.058 47.7701 383.033 47.8634 383.033H48.8364L45.9454 390.124H44.8184L41.9274 383.033ZM52.491 382.921C52.9157 382.921 53.3077 382.993 53.667 383.138C54.0264 383.278 54.3367 383.483 54.598 383.754C54.8594 384.02 55.0624 384.351 55.207 384.748C55.3564 385.14 55.431 385.588 55.431 386.092C55.431 386.288 55.41 386.418 55.368 386.484C55.326 386.549 55.2467 386.582 55.13 386.582H50.412C50.4214 387.03 50.482 387.419 50.594 387.751C50.706 388.082 50.86 388.36 51.056 388.584C51.252 388.803 51.4854 388.969 51.756 389.081C52.0267 389.188 52.33 389.242 52.666 389.242C52.9787 389.242 53.247 389.207 53.471 389.137C53.6997 389.062 53.8957 388.983 54.059 388.899C54.2224 388.815 54.3577 388.738 54.465 388.668C54.577 388.593 54.6727 388.556 54.752 388.556C54.8547 388.556 54.934 388.595 54.99 388.675L55.34 389.13C55.186 389.316 55.0017 389.48 54.787 389.62C54.5724 389.755 54.3414 389.867 54.094 389.956C53.8514 390.044 53.5994 390.11 53.338 390.152C53.0767 390.198 52.8177 390.222 52.561 390.222C52.071 390.222 51.6184 390.14 51.203 389.977C50.7924 389.809 50.4354 389.566 50.132 389.249C49.8334 388.927 49.6 388.53 49.432 388.059C49.264 387.587 49.18 387.046 49.18 386.435C49.18 385.94 49.2547 385.478 49.404 385.049C49.558 384.619 49.7774 384.248 50.062 383.936C50.3467 383.618 50.6944 383.371 51.105 383.194C51.5157 383.012 51.9777 382.921 52.491 382.921ZM52.519 383.838C51.917 383.838 51.4434 384.013 51.098 384.363C50.7527 384.708 50.538 385.189 50.454 385.805H54.311C54.311 385.515 54.2714 385.252 54.192 385.014C54.1127 384.771 53.996 384.563 53.842 384.391C53.688 384.213 53.499 384.078 53.275 383.985C53.0557 383.887 52.8037 383.838 52.519 383.838ZM60.4824 385.721C60.4824 386.719 60.6108 387.69 60.8674 388.633C61.1241 389.571 61.4951 390.467 61.9804 391.321C62.0084 391.372 62.0271 391.416 62.0364 391.454C62.0458 391.491 62.0504 391.528 62.0504 391.566C62.0504 391.631 62.0341 391.685 62.0014 391.727C61.9688 391.769 61.9268 391.806 61.8754 391.839L61.3224 392.175C60.9724 391.638 60.6738 391.106 60.4264 390.579C60.1838 390.051 59.9854 389.522 59.8314 388.99C59.6821 388.458 59.5724 387.923 59.5024 387.387C59.4324 386.845 59.3974 386.29 59.3974 385.721C59.3974 385.156 59.4324 384.603 59.5024 384.062C59.5724 383.52 59.6821 382.986 59.8314 382.459C59.9854 381.927 60.1838 381.397 60.4264 380.87C60.6738 380.342 60.9724 379.808 61.3224 379.267L61.8754 379.61C61.9268 379.642 61.9688 379.68 62.0014 379.722C62.0341 379.764 62.0504 379.817 62.0504 379.883C62.0504 379.953 62.0271 380.032 61.9804 380.121C61.4904 380.97 61.1171 381.866 60.8604 382.809C60.6084 383.751 60.4824 384.722 60.4824 385.721ZM67.48 382.515C67.48 382.907 67.4193 383.259 67.298 383.572C67.1766 383.88 67.0133 384.141 66.808 384.356C66.6073 384.566 66.3716 384.727 66.101 384.839C65.8303 384.951 65.548 385.007 65.254 385.007C64.9366 385.007 64.6426 384.951 64.372 384.839C64.106 384.727 63.8726 384.566 63.672 384.356C63.4713 384.141 63.315 383.88 63.203 383.572C63.091 383.259 63.035 382.907 63.035 382.515C63.035 382.113 63.091 381.756 63.203 381.444C63.315 381.131 63.4713 380.867 63.672 380.653C63.8726 380.438 64.106 380.275 64.372 380.163C64.6426 380.051 64.9366 379.995 65.254 379.995C65.5666 379.995 65.8583 380.051 66.129 380.163C66.4043 380.275 66.64 380.438 66.836 380.653C67.0366 380.867 67.193 381.131 67.305 381.444C67.4216 381.756 67.48 382.113 67.48 382.515ZM66.507 382.515C66.507 382.207 66.4743 381.945 66.409 381.731C66.3436 381.516 66.2526 381.341 66.136 381.206C66.024 381.066 65.891 380.965 65.737 380.905C65.5876 380.844 65.4266 380.814 65.254 380.814C65.0813 380.814 64.918 380.844 64.764 380.905C64.6146 380.965 64.484 381.066 64.372 381.206C64.26 381.341 64.1713 381.516 64.106 381.731C64.0453 381.945 64.015 382.207 64.015 382.515C64.015 382.818 64.0453 383.077 64.106 383.292C64.1713 383.502 64.26 383.674 64.372 383.81C64.484 383.94 64.6146 384.036 64.764 384.097C64.918 384.153 65.0813 384.181 65.254 384.181C65.4266 384.181 65.5876 384.153 65.737 384.097C65.891 384.036 66.024 383.94 66.136 383.81C66.2526 383.674 66.3436 383.502 66.409 383.292C66.4743 383.077 66.507 382.818 66.507 382.515ZM70.987 380.345C71.0476 380.265 71.1106 380.205 71.176 380.163C71.246 380.116 71.337 380.093 71.449 380.093H72.345L65.016 389.921C64.9693 389.981 64.9133 390.03 64.848 390.068C64.7826 390.105 64.7056 390.124 64.617 390.124H63.693L70.987 380.345ZM73.024 387.758C73.024 388.15 72.9633 388.5 72.842 388.808C72.7206 389.116 72.5573 389.377 72.352 389.592C72.1513 389.802 71.9156 389.963 71.645 390.075C71.379 390.187 71.099 390.243 70.805 390.243C70.4876 390.243 70.1936 390.187 69.923 390.075C69.657 389.963 69.4236 389.802 69.223 389.592C69.0223 389.377 68.866 389.116 68.754 388.808C68.642 388.5 68.586 388.15 68.586 387.758C68.586 387.356 68.642 386.999 68.754 386.687C68.866 386.369 69.0223 386.103 69.223 385.889C69.4236 385.674 69.657 385.511 69.923 385.399C70.1936 385.287 70.4876 385.231 70.805 385.231C71.1176 385.231 71.4093 385.287 71.68 385.399C71.9506 385.511 72.1863 385.674 72.387 385.889C72.5876 386.103 72.744 386.369 72.856 386.687C72.968 386.999 73.024 387.356 73.024 387.758ZM72.058 387.758C72.058 387.45 72.0253 387.188 71.96 386.974C71.8946 386.754 71.8036 386.577 71.687 386.442C71.575 386.306 71.442 386.208 71.288 386.148C71.1386 386.087 70.9776 386.057 70.805 386.057C70.6323 386.057 70.469 386.087 70.315 386.148C70.1656 386.208 70.035 386.306 69.923 386.442C69.811 386.577 69.7223 386.754 69.657 386.974C69.5963 387.188 69.566 387.45 69.566 387.758C69.566 388.061 69.5963 388.318 69.657 388.528C69.7223 388.738 69.811 388.91 69.923 389.046C70.035 389.176 70.1656 389.272 70.315 389.333C70.469 389.389 70.6323 389.417 70.805 389.417C70.9776 389.417 71.1386 389.389 71.288 389.333C71.442 389.272 71.575 389.176 71.687 389.046C71.8036 388.91 71.8946 388.738 71.96 388.528C72.0253 388.318 72.058 388.061 72.058 387.758ZM75.4971 385.721C75.4971 384.722 75.3688 383.751 75.1121 382.809C74.8601 381.866 74.4891 380.97 73.9991 380.121C73.9524 380.032 73.9291 379.953 73.9291 379.883C73.9291 379.817 73.9454 379.764 73.9781 379.722C74.0108 379.68 74.0528 379.642 74.1041 379.61L74.6571 379.267C75.0071 379.808 75.3034 380.342 75.5461 380.87C75.7934 381.397 75.9918 381.927 76.1411 382.459C76.2951 382.986 76.4071 383.52 76.4771 384.062C76.5471 384.603 76.5821 385.156 76.5821 385.721C76.5821 386.29 76.5471 386.845 76.4771 387.387C76.4071 387.923 76.2951 388.458 76.1411 388.99C75.9918 389.522 75.7934 390.051 75.5461 390.579C75.3034 391.106 75.0071 391.638 74.6571 392.175L74.1041 391.839C74.0528 391.806 74.0108 391.769 73.9781 391.727C73.9454 391.685 73.9291 391.631 73.9291 391.566C73.9291 391.528 73.9338 391.491 73.9431 391.454C73.9524 391.416 73.9711 391.372 73.9991 391.321C74.4844 390.467 74.8554 389.571 75.1121 388.633C75.3688 387.69 75.4971 386.719 75.4971 385.721Z" fill="#8D9AA9"/>
<rect x="235" y="126.789" width="42.1895" height="234.799" rx="3" fill="#9F9F9F"/>
<path d="M243.379 387.265C243.379 387.825 243.309 388.327 243.169 388.77C243.034 389.214 242.831 389.589 242.56 389.897C242.294 390.201 241.965 390.434 241.573 390.597C241.181 390.761 240.731 390.842 240.222 390.842C239.77 390.842 239.298 390.777 238.808 390.646C238.818 390.511 238.829 390.378 238.843 390.247C238.857 390.112 238.871 389.979 238.885 389.848C238.895 389.769 238.923 389.706 238.969 389.659C239.021 389.608 239.095 389.582 239.193 389.582C239.277 389.582 239.389 389.603 239.529 389.645C239.669 389.687 239.856 389.708 240.089 389.708C240.397 389.708 240.67 389.662 240.908 389.568C241.151 389.475 241.354 389.33 241.517 389.134C241.685 388.938 241.811 388.689 241.895 388.385C241.984 388.077 242.028 387.713 242.028 387.293V380.699H243.379V387.265ZM250.713 390.73H250.16C250.039 390.73 249.941 390.712 249.866 390.674C249.792 390.637 249.743 390.558 249.719 390.436L249.579 389.778C249.393 389.946 249.211 390.098 249.033 390.233C248.856 390.364 248.669 390.476 248.473 390.569C248.277 390.658 248.067 390.726 247.843 390.772C247.624 390.819 247.379 390.842 247.108 390.842C246.833 390.842 246.574 390.805 246.331 390.73C246.093 390.651 245.886 390.534 245.708 390.38C245.531 390.226 245.389 390.033 245.281 389.799C245.179 389.561 245.127 389.281 245.127 388.959C245.127 388.679 245.204 388.411 245.358 388.154C245.512 387.893 245.76 387.662 246.1 387.461C246.446 387.261 246.896 387.097 247.451 386.971C248.007 386.841 248.686 386.766 249.488 386.747V386.194C249.488 385.644 249.369 385.228 249.131 384.948C248.898 384.664 248.55 384.521 248.088 384.521C247.785 384.521 247.528 384.561 247.318 384.64C247.113 384.715 246.933 384.801 246.779 384.899C246.63 384.993 246.499 385.079 246.387 385.158C246.28 385.233 246.173 385.27 246.065 385.27C245.981 385.27 245.907 385.249 245.841 385.207C245.781 385.161 245.732 385.105 245.694 385.039L245.47 384.64C245.862 384.262 246.285 383.98 246.737 383.793C247.19 383.607 247.692 383.513 248.242 383.513C248.639 383.513 248.991 383.579 249.299 383.709C249.607 383.84 249.866 384.022 250.076 384.255C250.286 384.489 250.445 384.771 250.552 385.102C250.66 385.434 250.713 385.798 250.713 386.194V390.73ZM247.479 389.967C247.699 389.967 247.899 389.946 248.081 389.904C248.263 389.858 248.434 389.795 248.592 389.715C248.756 389.631 248.91 389.531 249.054 389.414C249.204 389.298 249.348 389.165 249.488 389.015V387.538C248.914 387.557 248.427 387.604 248.025 387.678C247.624 387.748 247.297 387.842 247.045 387.958C246.793 388.075 246.609 388.213 246.492 388.371C246.38 388.53 246.324 388.707 246.324 388.903C246.324 389.09 246.355 389.251 246.415 389.386C246.476 389.522 246.558 389.634 246.66 389.722C246.763 389.806 246.884 389.869 247.024 389.911C247.164 389.949 247.316 389.967 247.479 389.967ZM252.475 393.131V383.639H253.217C253.395 383.639 253.507 383.726 253.553 383.898L253.658 384.738C253.962 384.37 254.307 384.073 254.694 383.849C255.086 383.625 255.537 383.513 256.045 383.513C256.451 383.513 256.82 383.593 257.151 383.751C257.483 383.905 257.765 384.136 257.998 384.444C258.232 384.748 258.411 385.126 258.537 385.578C258.663 386.031 258.726 386.551 258.726 387.139C258.726 387.662 258.656 388.15 258.516 388.602C258.376 389.05 258.176 389.44 257.914 389.771C257.653 390.098 257.331 390.357 256.948 390.548C256.57 390.735 256.143 390.828 255.667 390.828C255.229 390.828 254.853 390.756 254.54 390.611C254.232 390.467 253.959 390.261 253.721 389.995V393.131H252.475ZM255.632 384.521C255.226 384.521 254.869 384.615 254.561 384.801C254.258 384.988 253.978 385.252 253.721 385.592V389.022C253.95 389.33 254.2 389.547 254.47 389.673C254.746 389.799 255.051 389.862 255.387 389.862C256.045 389.862 256.552 389.627 256.906 389.155C257.261 388.684 257.438 388.012 257.438 387.139C257.438 386.677 257.396 386.281 257.312 385.949C257.233 385.618 257.116 385.347 256.962 385.137C256.808 384.923 256.619 384.766 256.395 384.668C256.171 384.57 255.917 384.521 255.632 384.521ZM265.282 390.73H264.729C264.608 390.73 264.51 390.712 264.435 390.674C264.36 390.637 264.311 390.558 264.288 390.436L264.148 389.778C263.961 389.946 263.779 390.098 263.602 390.233C263.425 390.364 263.238 390.476 263.042 390.569C262.846 390.658 262.636 390.726 262.412 390.772C262.193 390.819 261.948 390.842 261.677 390.842C261.402 390.842 261.143 390.805 260.9 390.73C260.662 390.651 260.454 390.534 260.277 390.38C260.1 390.226 259.957 390.033 259.85 389.799C259.747 389.561 259.696 389.281 259.696 388.959C259.696 388.679 259.773 388.411 259.927 388.154C260.081 387.893 260.328 387.662 260.669 387.461C261.014 387.261 261.465 387.097 262.02 386.971C262.575 386.841 263.254 386.766 264.057 386.747V386.194C264.057 385.644 263.938 385.228 263.7 384.948C263.467 384.664 263.119 384.521 262.657 384.521C262.354 384.521 262.097 384.561 261.887 384.64C261.682 384.715 261.502 384.801 261.348 384.899C261.199 384.993 261.068 385.079 260.956 385.158C260.849 385.233 260.741 385.27 260.634 385.27C260.55 385.27 260.475 385.249 260.41 385.207C260.349 385.161 260.3 385.105 260.263 385.039L260.039 384.64C260.431 384.262 260.853 383.98 261.306 383.793C261.759 383.607 262.26 383.513 262.811 383.513C263.208 383.513 263.56 383.579 263.868 383.709C264.176 383.84 264.435 384.022 264.645 384.255C264.855 384.489 265.014 384.771 265.121 385.102C265.228 385.434 265.282 385.798 265.282 386.194V390.73ZM262.048 389.967C262.267 389.967 262.468 389.946 262.65 389.904C262.832 389.858 263.002 389.795 263.161 389.715C263.324 389.631 263.478 389.531 263.623 389.414C263.772 389.298 263.917 389.165 264.057 389.015V387.538C263.483 387.557 262.995 387.604 262.594 387.678C262.193 387.748 261.866 387.842 261.614 387.958C261.362 388.075 261.178 388.213 261.061 388.371C260.949 388.53 260.893 388.707 260.893 388.903C260.893 389.09 260.923 389.251 260.984 389.386C261.045 389.522 261.126 389.634 261.229 389.722C261.332 389.806 261.453 389.869 261.593 389.911C261.733 389.949 261.885 389.967 262.048 389.967ZM267.044 390.73V383.639H267.786C267.963 383.639 268.075 383.726 268.122 383.898L268.22 384.668C268.528 384.328 268.871 384.052 269.249 383.842C269.632 383.632 270.073 383.527 270.572 383.527C270.959 383.527 271.3 383.593 271.594 383.723C271.893 383.849 272.14 384.031 272.336 384.269C272.537 384.503 272.688 384.785 272.791 385.116C272.894 385.448 272.945 385.814 272.945 386.215V390.73H271.699V386.215C271.699 385.679 271.575 385.263 271.328 384.969C271.085 384.671 270.712 384.521 270.208 384.521C269.839 384.521 269.494 384.61 269.172 384.787C268.855 384.965 268.561 385.205 268.29 385.508V390.73H267.044Z" fill="#8D9AA9"/>
<path d="M249.605 171.779C249.605 171.173 249.695 170.606 249.875 170.079C250.055 169.553 250.318 169.099 250.665 168.719C251.005 168.333 251.422 168.029 251.915 167.809C252.408 167.589 252.968 167.479 253.595 167.479C254.128 167.479 254.622 167.559 255.075 167.719C255.528 167.879 255.965 168.096 256.385 168.369C256.798 168.643 257.202 168.959 257.595 169.319C257.982 169.673 258.378 170.049 258.785 170.449L262.645 174.219C262.572 173.953 262.515 173.683 262.475 173.409C262.428 173.136 262.405 172.873 262.405 172.619L262.405 167.819C262.405 167.626 262.462 167.473 262.575 167.359C262.688 167.246 262.835 167.189 263.015 167.189L264.095 167.189L264.095 176.749L263.485 176.749C263.358 176.749 263.228 176.726 263.095 176.679C262.962 176.626 262.838 176.543 262.725 176.429L258.115 171.839C257.728 171.459 257.358 171.113 257.005 170.799C256.645 170.486 256.285 170.219 255.925 169.999C255.565 169.773 255.202 169.599 254.835 169.479C254.462 169.359 254.065 169.299 253.645 169.299C253.225 169.299 252.858 169.366 252.545 169.499C252.225 169.633 251.962 169.816 251.755 170.049C251.548 170.283 251.395 170.556 251.295 170.869C251.188 171.183 251.135 171.519 251.135 171.879C251.135 172.239 251.188 172.573 251.295 172.879C251.402 173.186 251.552 173.459 251.745 173.699C251.932 173.933 252.155 174.133 252.415 174.299C252.675 174.459 252.962 174.573 253.275 174.639C253.468 174.693 253.608 174.773 253.695 174.879C253.782 174.986 253.825 175.126 253.825 175.299C253.825 175.333 253.825 175.369 253.825 175.409C253.818 175.443 253.812 175.483 253.805 175.529L253.645 176.459C252.992 176.366 252.415 176.186 251.915 175.919C251.408 175.653 250.985 175.316 250.645 174.909C250.305 174.496 250.048 174.026 249.875 173.499C249.695 172.966 249.605 172.393 249.605 171.779ZM256.935 155.313C258.188 155.313 259.275 155.45 260.195 155.723C261.108 155.99 261.865 156.357 262.465 156.823C263.065 157.29 263.512 157.843 263.805 158.483C264.098 159.117 264.245 159.797 264.245 160.523C264.245 161.257 264.098 161.94 263.805 162.573C263.512 163.2 263.065 163.747 262.465 164.213C261.865 164.68 261.108 165.047 260.195 165.313C259.275 165.58 258.188 165.713 256.935 165.713C255.682 165.713 254.595 165.58 253.675 165.313C252.755 165.047 251.995 164.68 251.395 164.213C250.788 163.747 250.338 163.2 250.045 162.573C249.752 161.94 249.605 161.257 249.605 160.523C249.605 159.797 249.752 159.117 250.045 158.483C250.338 157.843 250.788 157.29 251.395 156.823C251.995 156.357 252.755 155.99 253.675 155.723C254.595 155.45 255.682 155.313 256.935 155.313ZM256.935 157.163C255.842 157.163 254.925 157.257 254.185 157.443C253.438 157.623 252.838 157.87 252.385 158.183C251.932 158.49 251.608 158.847 251.415 159.253C251.215 159.66 251.115 160.083 251.115 160.523C251.115 160.963 251.215 161.387 251.415 161.793C251.608 162.2 251.932 162.557 252.385 162.863C252.838 163.17 253.438 163.417 254.185 163.603C254.925 163.783 255.842 163.873 256.935 163.873C258.028 163.873 258.945 163.783 259.685 163.603C260.425 163.417 261.022 163.17 261.475 162.863C261.928 162.557 262.255 162.2 262.455 161.793C262.648 161.387 262.745 160.963 262.745 160.523C262.745 160.083 262.648 159.66 262.455 159.253C262.255 158.847 261.928 158.49 261.475 158.183C261.022 157.87 260.425 157.623 259.685 157.443C258.945 157.257 258.028 157.163 256.935 157.163ZM253.225 147.767C253.785 147.767 254.288 147.854 254.735 148.027C255.175 148.201 255.548 148.434 255.855 148.727C256.155 149.014 256.385 149.351 256.545 149.737C256.705 150.124 256.785 150.527 256.785 150.947C256.785 151.401 256.705 151.821 256.545 152.207C256.385 152.587 256.155 152.921 255.855 153.207C255.548 153.494 255.175 153.717 254.735 153.877C254.288 154.037 253.785 154.117 253.225 154.117C252.652 154.117 252.142 154.037 251.695 153.877C251.248 153.717 250.872 153.494 250.565 153.207C250.258 152.921 250.025 152.587 249.865 152.207C249.705 151.821 249.625 151.401 249.625 150.947C249.625 150.501 249.705 150.084 249.865 149.697C250.025 149.304 250.258 148.967 250.565 148.687C250.872 148.401 251.248 148.177 251.695 148.017C252.142 147.851 252.652 147.767 253.225 147.767ZM253.225 149.157C252.785 149.157 252.412 149.204 252.105 149.297C251.798 149.391 251.548 149.521 251.355 149.687C251.155 149.847 251.012 150.037 250.925 150.257C250.838 150.471 250.795 150.701 250.795 150.947C250.795 151.194 250.838 151.427 250.925 151.647C251.012 151.861 251.155 152.047 251.355 152.207C251.548 152.367 251.798 152.494 252.105 152.587C252.412 152.674 252.785 152.717 253.225 152.717C253.658 152.717 254.028 152.674 254.335 152.587C254.635 152.494 254.882 152.367 255.075 152.207C255.262 152.047 255.398 151.861 255.485 151.647C255.565 151.427 255.605 151.194 255.605 150.947C255.605 150.701 255.565 150.471 255.485 150.257C255.398 150.037 255.262 149.847 255.075 149.687C254.882 149.521 254.635 149.391 254.335 149.297C254.028 149.204 253.658 149.157 253.225 149.157ZM250.125 142.757C250.012 142.671 249.925 142.581 249.865 142.487C249.798 142.387 249.765 142.257 249.765 142.097L249.765 140.817L263.805 151.287C263.892 151.354 263.962 151.434 264.015 151.527C264.068 151.621 264.095 151.731 264.095 151.857L264.095 153.177L250.125 142.757ZM260.715 139.847C261.275 139.847 261.775 139.934 262.215 140.107C262.655 140.281 263.028 140.514 263.335 140.807C263.635 141.094 263.865 141.431 264.025 141.817C264.185 142.197 264.265 142.597 264.265 143.017C264.265 143.471 264.185 143.891 264.025 144.277C263.865 144.657 263.635 144.991 263.335 145.277C263.028 145.564 262.655 145.787 262.215 145.947C261.775 146.107 261.275 146.187 260.715 146.187C260.142 146.187 259.632 146.107 259.185 145.947C258.732 145.787 258.352 145.564 258.045 145.277C257.738 144.991 257.505 144.657 257.345 144.277C257.185 143.891 257.105 143.471 257.105 143.017C257.105 142.571 257.185 142.154 257.345 141.767C257.505 141.381 257.738 141.044 258.045 140.757C258.352 140.471 258.732 140.247 259.185 140.087C259.632 139.927 260.142 139.847 260.715 139.847ZM260.715 141.227C260.275 141.227 259.902 141.274 259.595 141.367C259.282 141.461 259.028 141.591 258.835 141.757C258.642 141.917 258.502 142.107 258.415 142.327C258.328 142.541 258.285 142.771 258.285 143.017C258.285 143.264 258.328 143.497 258.415 143.717C258.502 143.931 258.642 144.117 258.835 144.277C259.028 144.437 259.282 144.564 259.595 144.657C259.902 144.744 260.275 144.787 260.715 144.787C261.148 144.787 261.515 144.744 261.815 144.657C262.115 144.564 262.362 144.437 262.555 144.277C262.742 144.117 262.878 143.931 262.965 143.717C263.045 143.497 263.085 143.264 263.085 143.017C263.085 142.771 263.045 142.541 262.965 142.327C262.878 142.107 262.742 141.917 262.555 141.757C262.362 141.591 262.115 141.461 261.815 141.367C261.515 141.274 261.148 141.227 260.715 141.227Z" fill="#6D6A6A"/>
<rect x="353.398" y="127.109" width="42.1895" height="234.799" rx="3" fill="#9F9F9F"/>
<path d="M356.487 379.248V380.389H353.246V389.279H351.888V380.389H348.633V379.248H356.487ZM357.591 389.279V378.968H358.837V383.14C359.14 382.818 359.476 382.561 359.845 382.37C360.213 382.174 360.638 382.076 361.119 382.076C361.506 382.076 361.847 382.141 362.141 382.272C362.439 382.398 362.687 382.58 362.883 382.818C363.083 383.051 363.235 383.334 363.338 383.665C363.44 383.996 363.492 384.363 363.492 384.764V389.279H362.246V384.764C362.246 384.227 362.122 383.812 361.875 383.518C361.632 383.219 361.259 383.07 360.755 383.07C360.386 383.07 360.041 383.159 359.719 383.336C359.401 383.513 359.107 383.754 358.837 384.057V389.279H357.591ZM370.452 389.279H369.899C369.778 389.279 369.68 389.26 369.605 389.223C369.531 389.186 369.482 389.106 369.458 388.985L369.318 388.327C369.132 388.495 368.95 388.647 368.772 388.782C368.595 388.913 368.408 389.025 368.212 389.118C368.016 389.207 367.806 389.274 367.582 389.321C367.363 389.368 367.118 389.391 366.847 389.391C366.572 389.391 366.313 389.354 366.07 389.279C365.832 389.2 365.625 389.083 365.447 388.929C365.27 388.775 365.128 388.581 365.02 388.348C364.918 388.11 364.866 387.83 364.866 387.508C364.866 387.228 364.943 386.96 365.097 386.703C365.251 386.442 365.499 386.211 365.839 386.01C366.185 385.809 366.635 385.646 367.19 385.52C367.746 385.389 368.425 385.315 369.227 385.296V384.743C369.227 384.192 369.108 383.777 368.87 383.497C368.637 383.212 368.289 383.07 367.827 383.07C367.524 383.07 367.267 383.11 367.057 383.189C366.852 383.264 366.672 383.35 366.518 383.448C366.369 383.541 366.238 383.628 366.126 383.707C366.019 383.782 365.912 383.819 365.804 383.819C365.72 383.819 365.646 383.798 365.58 383.756C365.52 383.709 365.471 383.653 365.433 383.588L365.209 383.189C365.601 382.811 366.024 382.529 366.476 382.342C366.929 382.155 367.431 382.062 367.981 382.062C368.378 382.062 368.73 382.127 369.038 382.258C369.346 382.389 369.605 382.571 369.815 382.804C370.025 383.037 370.184 383.32 370.291 383.651C370.399 383.982 370.452 384.346 370.452 384.743V389.279ZM367.218 388.516C367.438 388.516 367.638 388.495 367.82 388.453C368.002 388.406 368.173 388.343 368.331 388.264C368.495 388.18 368.649 388.08 368.793 387.963C368.943 387.846 369.087 387.713 369.227 387.564V386.087C368.653 386.106 368.166 386.152 367.764 386.227C367.363 386.297 367.036 386.39 366.784 386.507C366.532 386.624 366.348 386.761 366.231 386.92C366.119 387.079 366.063 387.256 366.063 387.452C366.063 387.639 366.094 387.8 366.154 387.935C366.215 388.07 366.297 388.182 366.399 388.271C366.502 388.355 366.623 388.418 366.763 388.46C366.903 388.497 367.055 388.516 367.218 388.516ZM373.6 382.188V389.279H372.354V382.188H373.6ZM373.88 379.962C373.88 380.083 373.855 380.198 373.803 380.305C373.757 380.408 373.691 380.501 373.607 380.585C373.528 380.664 373.435 380.727 373.327 380.774C373.22 380.821 373.106 380.844 372.984 380.844C372.863 380.844 372.749 380.821 372.641 380.774C372.539 380.727 372.445 380.664 372.361 380.585C372.282 380.501 372.219 380.408 372.172 380.305C372.126 380.198 372.102 380.083 372.102 379.962C372.102 379.841 372.126 379.726 372.172 379.619C372.219 379.507 372.282 379.411 372.361 379.332C372.445 379.248 372.539 379.183 372.641 379.136C372.749 379.089 372.863 379.066 372.984 379.066C373.106 379.066 373.22 379.089 373.327 379.136C373.435 379.183 373.528 379.248 373.607 379.332C373.691 379.411 373.757 379.507 373.803 379.619C373.855 379.726 373.88 379.841 373.88 379.962ZM377.057 378.968V389.279H375.811V378.968H377.057ZM384.335 389.279H383.782C383.661 389.279 383.563 389.26 383.488 389.223C383.413 389.186 383.364 389.106 383.341 388.985L383.201 388.327C383.014 388.495 382.832 388.647 382.655 388.782C382.478 388.913 382.291 389.025 382.095 389.118C381.899 389.207 381.689 389.274 381.465 389.321C381.246 389.368 381.001 389.391 380.73 389.391C380.455 389.391 380.196 389.354 379.953 389.279C379.715 389.2 379.507 389.083 379.33 388.929C379.153 388.775 379.01 388.581 378.903 388.348C378.8 388.11 378.749 387.83 378.749 387.508C378.749 387.228 378.826 386.96 378.98 386.703C379.134 386.442 379.381 386.211 379.722 386.01C380.067 385.809 380.518 385.646 381.073 385.52C381.628 385.389 382.307 385.315 383.11 385.296V384.743C383.11 384.192 382.991 383.777 382.753 383.497C382.52 383.212 382.172 383.07 381.71 383.07C381.407 383.07 381.15 383.11 380.94 383.189C380.735 383.264 380.555 383.35 380.401 383.448C380.252 383.541 380.121 383.628 380.009 383.707C379.902 383.782 379.794 383.819 379.687 383.819C379.603 383.819 379.528 383.798 379.463 383.756C379.402 383.709 379.353 383.653 379.316 383.588L379.092 383.189C379.484 382.811 379.906 382.529 380.359 382.342C380.812 382.155 381.313 382.062 381.864 382.062C382.261 382.062 382.613 382.127 382.921 382.258C383.229 382.389 383.488 382.571 383.698 382.804C383.908 383.037 384.067 383.32 384.174 383.651C384.281 383.982 384.335 384.346 384.335 384.743V389.279ZM381.101 388.516C381.32 388.516 381.521 388.495 381.703 388.453C381.885 388.406 382.055 388.343 382.214 388.264C382.377 388.18 382.531 388.08 382.676 387.963C382.825 387.846 382.97 387.713 383.11 387.564V386.087C382.536 386.106 382.048 386.152 381.647 386.227C381.246 386.297 380.919 386.39 380.667 386.507C380.415 386.624 380.231 386.761 380.114 386.92C380.002 387.079 379.946 387.256 379.946 387.452C379.946 387.639 379.976 387.8 380.037 387.935C380.098 388.07 380.179 388.182 380.282 388.271C380.385 388.355 380.506 388.418 380.646 388.46C380.786 388.497 380.938 388.516 381.101 388.516ZM386.097 389.279V382.188H386.839C387.016 382.188 387.128 382.274 387.175 382.447L387.273 383.217C387.581 382.876 387.924 382.601 388.302 382.391C388.685 382.181 389.126 382.076 389.625 382.076C390.012 382.076 390.353 382.141 390.647 382.272C390.946 382.398 391.193 382.58 391.389 382.818C391.59 383.051 391.741 383.334 391.844 383.665C391.947 383.996 391.998 384.363 391.998 384.764V389.279H390.752V384.764C390.752 384.227 390.628 383.812 390.381 383.518C390.138 383.219 389.765 383.07 389.261 383.07C388.892 383.07 388.547 383.159 388.225 383.336C387.908 383.513 387.614 383.754 387.343 384.057V389.279H386.097ZM398.742 389.279C398.564 389.279 398.452 389.193 398.406 389.02L398.294 388.159C397.99 388.528 397.643 388.824 397.251 389.048C396.863 389.267 396.418 389.377 395.914 389.377C395.508 389.377 395.139 389.3 394.808 389.146C394.476 388.987 394.194 388.756 393.961 388.453C393.727 388.15 393.548 387.772 393.422 387.319C393.296 386.866 393.233 386.346 393.233 385.758C393.233 385.235 393.303 384.75 393.443 384.302C393.583 383.849 393.783 383.457 394.045 383.126C394.311 382.795 394.633 382.536 395.011 382.349C395.389 382.158 395.818 382.062 396.299 382.062C396.733 382.062 397.104 382.137 397.412 382.286C397.72 382.431 397.995 382.636 398.238 382.902V378.968H399.484V389.279H398.742ZM396.327 388.369C396.733 388.369 397.087 388.276 397.391 388.089C397.699 387.902 397.981 387.639 398.238 387.298V383.868C398.009 383.56 397.757 383.345 397.482 383.224C397.211 383.098 396.91 383.035 396.579 383.035C395.916 383.035 395.407 383.271 395.053 383.742C394.698 384.213 394.521 384.885 394.521 385.758C394.521 386.22 394.56 386.617 394.64 386.948C394.719 387.275 394.836 387.545 394.99 387.76C395.144 387.97 395.333 388.124 395.557 388.222C395.781 388.32 396.037 388.369 396.327 388.369Z" fill="#8D9AA9"/>
<path d="M368.185 171.428C368.185 170.821 368.275 170.254 368.455 169.728C368.635 169.201 368.899 168.748 369.245 168.368C369.585 167.981 370.002 167.678 370.495 167.458C370.989 167.238 371.549 167.128 372.175 167.128C372.709 167.128 373.202 167.208 373.655 167.368C374.109 167.528 374.545 167.744 374.965 168.018C375.379 168.291 375.782 168.608 376.175 168.968C376.562 169.321 376.959 169.698 377.365 170.098L381.225 173.868C381.152 173.601 381.095 173.331 381.055 173.058C381.009 172.784 380.985 172.521 380.985 172.268L380.985 167.468C380.985 167.274 381.042 167.121 381.155 167.008C381.269 166.894 381.415 166.838 381.595 166.838L382.675 166.838L382.675 176.398L382.065 176.398C381.939 176.398 381.809 176.374 381.675 176.328C381.542 176.274 381.419 176.191 381.305 176.078L376.695 171.488C376.309 171.108 375.939 170.761 375.585 170.448C375.225 170.134 374.865 169.868 374.505 169.648C374.145 169.421 373.782 169.248 373.415 169.128C373.042 169.008 372.645 168.948 372.225 168.948C371.805 168.948 371.439 169.014 371.125 169.148C370.805 169.281 370.542 169.464 370.335 169.698C370.129 169.931 369.975 170.204 369.875 170.518C369.769 170.831 369.715 171.168 369.715 171.528C369.715 171.888 369.769 172.221 369.875 172.528C369.982 172.834 370.132 173.108 370.325 173.348C370.512 173.581 370.735 173.781 370.995 173.948C371.255 174.108 371.542 174.221 371.855 174.288C372.049 174.341 372.189 174.421 372.275 174.528C372.362 174.634 372.405 174.774 372.405 174.948C372.405 174.981 372.405 175.018 372.405 175.058C372.399 175.091 372.392 175.131 372.385 175.178L372.225 176.108C371.572 176.014 370.995 175.834 370.495 175.568C369.989 175.301 369.565 174.964 369.225 174.558C368.885 174.144 368.629 173.674 368.455 173.148C368.275 172.614 368.185 172.041 368.185 171.428ZM375.515 154.962C376.769 154.962 377.855 155.099 378.775 155.372C379.689 155.639 380.445 156.005 381.045 156.472C381.645 156.939 382.092 157.492 382.385 158.132C382.679 158.765 382.825 159.445 382.825 160.172C382.825 160.905 382.679 161.589 382.385 162.222C382.092 162.849 381.645 163.395 381.045 163.862C380.445 164.329 379.689 164.695 378.775 164.962C377.855 165.229 376.769 165.362 375.515 165.362C374.262 165.362 373.175 165.229 372.255 164.962C371.335 164.695 370.575 164.329 369.975 163.862C369.369 163.395 368.919 162.849 368.625 162.222C368.332 161.589 368.185 160.905 368.185 160.172C368.185 159.445 368.332 158.765 368.625 158.132C368.919 157.492 369.369 156.939 369.975 156.472C370.575 156.005 371.335 155.639 372.255 155.372C373.175 155.099 374.262 154.962 375.515 154.962ZM375.515 156.812C374.422 156.812 373.505 156.905 372.765 157.092C372.019 157.272 371.419 157.519 370.965 157.832C370.512 158.139 370.189 158.495 369.995 158.902C369.795 159.309 369.695 159.732 369.695 160.172C369.695 160.612 369.795 161.035 369.995 161.442C370.189 161.849 370.512 162.205 370.965 162.512C371.419 162.819 372.019 163.065 372.765 163.252C373.505 163.432 374.422 163.522 375.515 163.522C376.609 163.522 377.525 163.432 378.265 163.252C379.005 163.065 379.602 162.819 380.055 162.512C380.509 162.205 380.835 161.849 381.035 161.442C381.229 161.035 381.325 160.612 381.325 160.172C381.325 159.732 381.229 159.309 381.035 158.902C380.835 158.495 380.509 158.139 380.055 157.832C379.602 157.519 379.005 157.272 378.265 157.092C377.525 156.905 376.609 156.812 375.515 156.812ZM371.805 147.416C372.365 147.416 372.869 147.503 373.315 147.676C373.755 147.849 374.129 148.083 374.435 148.376C374.735 148.663 374.965 148.999 375.125 149.386C375.285 149.773 375.365 150.176 375.365 150.596C375.365 151.049 375.285 151.469 375.125 151.856C374.965 152.236 374.735 152.569 374.435 152.856C374.129 153.143 373.755 153.366 373.315 153.526C372.869 153.686 372.365 153.766 371.805 153.766C371.232 153.766 370.722 153.686 370.275 153.526C369.829 153.366 369.452 153.143 369.145 152.856C368.839 152.569 368.605 152.236 368.445 151.856C368.285 151.469 368.205 151.049 368.205 150.596C368.205 150.149 368.285 149.733 368.445 149.346C368.605 148.953 368.839 148.616 369.145 148.336C369.452 148.049 369.829 147.826 370.275 147.666C370.722 147.499 371.232 147.416 371.805 147.416ZM371.805 148.806C371.365 148.806 370.992 148.853 370.685 148.946C370.379 149.039 370.129 149.169 369.935 149.336C369.735 149.496 369.592 149.686 369.505 149.906C369.419 150.119 369.375 150.349 369.375 150.596C369.375 150.843 369.419 151.076 369.505 151.296C369.592 151.509 369.735 151.696 369.935 151.856C370.129 152.016 370.379 152.143 370.685 152.236C370.992 152.323 371.365 152.366 371.805 152.366C372.239 152.366 372.609 152.323 372.915 152.236C373.215 152.143 373.462 152.016 373.655 151.856C373.842 151.696 373.979 151.509 374.065 151.296C374.145 151.076 374.185 150.843 374.185 150.596C374.185 150.349 374.145 150.119 374.065 149.906C373.979 149.686 373.842 149.496 373.655 149.336C373.462 149.169 373.215 149.039 372.915 148.946C372.609 148.853 372.239 148.806 371.805 148.806ZM368.705 142.406C368.592 142.319 368.505 142.229 368.445 142.136C368.379 142.036 368.345 141.906 368.345 141.746L368.345 140.466L382.385 150.936C382.472 151.003 382.542 151.083 382.595 151.176C382.649 151.269 382.675 151.379 382.675 151.506L382.675 152.826L368.705 142.406ZM379.295 139.496C379.855 139.496 380.355 139.583 380.795 139.756C381.235 139.929 381.609 140.163 381.915 140.456C382.215 140.743 382.445 141.079 382.605 141.466C382.765 141.846 382.845 142.246 382.845 142.666C382.845 143.119 382.765 143.539 382.605 143.926C382.445 144.306 382.215 144.639 381.915 144.926C381.609 145.213 381.235 145.436 380.795 145.596C380.355 145.756 379.855 145.836 379.295 145.836C378.722 145.836 378.212 145.756 377.765 145.596C377.312 145.436 376.932 145.213 376.625 144.926C376.319 144.639 376.085 144.306 375.925 143.926C375.765 143.539 375.685 143.119 375.685 142.666C375.685 142.219 375.765 141.803 375.925 141.416C376.085 141.029 376.319 140.693 376.625 140.406C376.932 140.119 377.312 139.896 377.765 139.736C378.212 139.576 378.722 139.496 379.295 139.496ZM379.295 140.876C378.855 140.876 378.482 140.923 378.175 141.016C377.862 141.109 377.609 141.239 377.415 141.406C377.222 141.566 377.082 141.756 376.995 141.976C376.909 142.189 376.865 142.419 376.865 142.666C376.865 142.913 376.909 143.146 376.995 143.366C377.082 143.579 377.222 143.766 377.415 143.926C377.609 144.086 377.862 144.213 378.175 144.306C378.482 144.393 378.855 144.436 379.295 144.436C379.729 144.436 380.095 144.393 380.395 144.306C380.695 144.213 380.942 144.086 381.135 143.926C381.322 143.766 381.459 143.579 381.545 143.366C381.625 143.146 381.665 142.913 381.665 142.666C381.665 142.419 381.625 142.189 381.545 141.976C381.459 141.756 381.322 141.566 381.135 141.406C380.942 141.239 380.695 141.109 380.395 141.016C380.095 140.923 379.729 140.876 379.295 140.876Z" fill="#6D6A6A"/>
<rect x="480.935" y="127.109" width="42.1895" height="234.799" rx="3" fill="#9F9F9F"/>
<path d="M475.513 385.037V388.789H474.162V378.758H477.123C477.758 378.758 478.308 378.833 478.775 378.982C479.246 379.127 479.636 379.335 479.944 379.605C480.252 379.876 480.481 380.203 480.63 380.585C480.784 380.968 480.861 381.395 480.861 381.866C480.861 382.333 480.779 382.76 480.616 383.147C480.453 383.535 480.212 383.868 479.895 384.148C479.582 384.428 479.193 384.648 478.726 384.806C478.259 384.96 477.725 385.037 477.123 385.037H475.513ZM475.513 383.959H477.123C477.51 383.959 477.851 383.908 478.145 383.805C478.444 383.703 478.693 383.56 478.894 383.378C479.095 383.192 479.246 382.97 479.349 382.713C479.452 382.457 479.503 382.174 479.503 381.866C479.503 381.227 479.305 380.728 478.908 380.368C478.516 380.009 477.921 379.829 477.123 379.829H475.513V383.959ZM482.259 388.789V378.478H483.505V382.65C483.808 382.328 484.144 382.072 484.513 381.88C484.882 381.684 485.306 381.586 485.787 381.586C486.174 381.586 486.515 381.652 486.809 381.782C487.108 381.908 487.355 382.09 487.551 382.328C487.752 382.562 487.903 382.844 488.006 383.175C488.109 383.507 488.16 383.873 488.16 384.274V388.789H486.914V384.274C486.914 383.738 486.79 383.322 486.543 383.028C486.3 382.73 485.927 382.58 485.423 382.58C485.054 382.58 484.709 382.669 484.387 382.846C484.07 383.024 483.776 383.264 483.505 383.567V388.789H482.259ZM491.299 381.698V388.789H490.053V381.698H491.299ZM491.579 379.472C491.579 379.594 491.553 379.708 491.502 379.815C491.455 379.918 491.39 380.011 491.306 380.095C491.226 380.175 491.133 380.238 491.026 380.284C490.918 380.331 490.804 380.354 490.683 380.354C490.561 380.354 490.447 380.331 490.34 380.284C490.237 380.238 490.144 380.175 490.06 380.095C489.98 380.011 489.917 379.918 489.871 379.815C489.824 379.708 489.801 379.594 489.801 379.472C489.801 379.351 489.824 379.237 489.871 379.129C489.917 379.017 489.98 378.922 490.06 378.842C490.144 378.758 490.237 378.693 490.34 378.646C490.447 378.6 490.561 378.576 490.683 378.576C490.804 378.576 490.918 378.6 491.026 378.646C491.133 378.693 491.226 378.758 491.306 378.842C491.39 378.922 491.455 379.017 491.502 379.129C491.553 379.237 491.579 379.351 491.579 379.472ZM494.755 378.478V388.789H493.509V378.478H494.755ZM498.211 381.698V388.789H496.965V381.698H498.211ZM498.491 379.472C498.491 379.594 498.466 379.708 498.414 379.815C498.368 379.918 498.302 380.011 498.218 380.095C498.139 380.175 498.046 380.238 497.938 380.284C497.831 380.331 497.717 380.354 497.595 380.354C497.474 380.354 497.36 380.331 497.252 380.284C497.15 380.238 497.056 380.175 496.972 380.095C496.893 380.011 496.83 379.918 496.783 379.815C496.737 379.708 496.713 379.594 496.713 379.472C496.713 379.351 496.737 379.237 496.783 379.129C496.83 379.017 496.893 378.922 496.972 378.842C497.056 378.758 497.15 378.693 497.252 378.646C497.36 378.6 497.474 378.576 497.595 378.576C497.717 378.576 497.831 378.6 497.938 378.646C498.046 378.693 498.139 378.758 498.218 378.842C498.302 378.922 498.368 379.017 498.414 379.129C498.466 379.237 498.491 379.351 498.491 379.472ZM500.282 391.19V381.698H501.024C501.201 381.698 501.313 381.785 501.36 381.957L501.465 382.797C501.768 382.429 502.113 382.132 502.501 381.908C502.893 381.684 503.343 381.572 503.852 381.572C504.258 381.572 504.626 381.652 504.958 381.81C505.289 381.964 505.571 382.195 505.805 382.503C506.038 382.807 506.218 383.185 506.344 383.637C506.47 384.09 506.533 384.61 506.533 385.198C506.533 385.721 506.463 386.209 506.323 386.661C506.183 387.109 505.982 387.499 505.721 387.83C505.459 388.157 505.137 388.416 504.755 388.607C504.377 388.794 503.95 388.887 503.474 388.887C503.035 388.887 502.659 388.815 502.347 388.67C502.039 388.526 501.766 388.32 501.528 388.054V391.19H500.282ZM503.439 382.58C503.033 382.58 502.676 382.674 502.368 382.86C502.064 383.047 501.784 383.311 501.528 383.651V387.081C501.756 387.389 502.006 387.606 502.277 387.732C502.552 387.858 502.858 387.921 503.194 387.921C503.852 387.921 504.358 387.686 504.713 387.214C505.067 386.743 505.245 386.071 505.245 385.198C505.245 384.736 505.203 384.34 505.119 384.008C505.039 383.677 504.923 383.406 504.769 383.196C504.615 382.982 504.426 382.825 504.202 382.727C503.978 382.629 503.723 382.58 503.439 382.58ZM509.266 381.698V388.789H508.02V381.698H509.266ZM509.546 379.472C509.546 379.594 509.521 379.708 509.469 379.815C509.423 379.918 509.357 380.011 509.273 380.095C509.194 380.175 509.101 380.238 508.993 380.284C508.886 380.331 508.772 380.354 508.65 380.354C508.529 380.354 508.415 380.331 508.307 380.284C508.205 380.238 508.111 380.175 508.027 380.095C507.948 380.011 507.885 379.918 507.838 379.815C507.792 379.708 507.768 379.594 507.768 379.472C507.768 379.351 507.792 379.237 507.838 379.129C507.885 379.017 507.948 378.922 508.027 378.842C508.111 378.758 508.205 378.693 508.307 378.646C508.415 378.6 508.529 378.576 508.65 378.576C508.772 378.576 508.886 378.6 508.993 378.646C509.101 378.693 509.194 378.758 509.273 378.842C509.357 378.922 509.423 379.017 509.469 379.129C509.521 379.237 509.546 379.351 509.546 379.472ZM511.337 388.789V381.698H512.079C512.256 381.698 512.368 381.785 512.415 381.957L512.513 382.727C512.821 382.387 513.164 382.111 513.542 381.901C513.924 381.691 514.365 381.586 514.865 381.586C515.252 381.586 515.593 381.652 515.887 381.782C516.185 381.908 516.433 382.09 516.629 382.328C516.829 382.562 516.981 382.844 517.084 383.175C517.186 383.507 517.238 383.873 517.238 384.274V388.789H515.992V384.274C515.992 383.738 515.868 383.322 515.621 383.028C515.378 382.73 515.005 382.58 514.501 382.58C514.132 382.58 513.787 382.669 513.465 382.846C513.147 383.024 512.853 383.264 512.583 383.567V388.789H511.337ZM521.797 381.586C522.222 381.586 522.614 381.659 522.973 381.803C523.333 381.943 523.643 382.149 523.904 382.419C524.166 382.685 524.369 383.017 524.513 383.413C524.663 383.805 524.737 384.253 524.737 384.757C524.737 384.953 524.716 385.084 524.674 385.149C524.632 385.215 524.553 385.247 524.436 385.247H519.718C519.728 385.695 519.788 386.085 519.9 386.416C520.012 386.748 520.166 387.025 520.362 387.249C520.558 387.469 520.792 387.634 521.062 387.746C521.333 387.854 521.636 387.907 521.972 387.907C522.285 387.907 522.553 387.872 522.777 387.802C523.006 387.728 523.202 387.648 523.365 387.564C523.529 387.48 523.664 387.403 523.771 387.333C523.883 387.259 523.979 387.221 524.058 387.221C524.161 387.221 524.24 387.261 524.296 387.34L524.646 387.795C524.492 387.982 524.308 388.145 524.093 388.285C523.879 388.421 523.648 388.533 523.4 388.621C523.158 388.71 522.906 388.775 522.644 388.817C522.383 388.864 522.124 388.887 521.867 388.887C521.377 388.887 520.925 388.806 520.509 388.642C520.099 388.474 519.742 388.232 519.438 387.914C519.14 387.592 518.906 387.196 518.738 386.724C518.57 386.253 518.486 385.712 518.486 385.1C518.486 384.606 518.561 384.144 518.71 383.714C518.864 383.285 519.084 382.914 519.368 382.601C519.653 382.284 520.001 382.037 520.411 381.859C520.822 381.677 521.284 381.586 521.797 381.586ZM521.825 382.503C521.223 382.503 520.75 382.678 520.404 383.028C520.059 383.374 519.844 383.854 519.76 384.47H523.617C523.617 384.181 523.578 383.917 523.498 383.679C523.419 383.437 523.302 383.229 523.148 383.056C522.994 382.879 522.805 382.744 522.581 382.65C522.362 382.552 522.11 382.503 521.825 382.503ZM530.266 382.867C530.21 382.97 530.124 383.021 530.007 383.021C529.937 383.021 529.858 382.996 529.769 382.944C529.681 382.893 529.571 382.837 529.44 382.776C529.314 382.711 529.163 382.653 528.985 382.601C528.808 382.545 528.598 382.517 528.355 382.517C528.145 382.517 527.956 382.545 527.788 382.601C527.62 382.653 527.476 382.725 527.354 382.818C527.238 382.912 527.147 383.021 527.081 383.147C527.021 383.269 526.99 383.402 526.99 383.546C526.99 383.728 527.042 383.88 527.144 384.001C527.252 384.123 527.392 384.228 527.564 384.316C527.737 384.405 527.933 384.484 528.152 384.554C528.372 384.62 528.596 384.692 528.824 384.771C529.058 384.846 529.284 384.93 529.503 385.023C529.723 385.117 529.919 385.233 530.091 385.373C530.264 385.513 530.402 385.686 530.504 385.891C530.612 386.092 530.665 386.335 530.665 386.619C530.665 386.946 530.607 387.249 530.49 387.529C530.374 387.805 530.201 388.045 529.972 388.25C529.744 388.451 529.464 388.61 529.132 388.726C528.801 388.843 528.418 388.901 527.984 388.901C527.49 388.901 527.042 388.822 526.64 388.663C526.239 388.5 525.898 388.292 525.618 388.04L525.912 387.564C525.95 387.504 525.994 387.457 526.045 387.424C526.097 387.392 526.164 387.375 526.248 387.375C526.332 387.375 526.421 387.408 526.514 387.473C526.608 387.539 526.72 387.611 526.85 387.69C526.986 387.77 527.147 387.842 527.333 387.907C527.525 387.973 527.763 388.005 528.047 388.005C528.29 388.005 528.502 387.975 528.684 387.914C528.866 387.849 529.018 387.763 529.139 387.655C529.261 387.548 529.349 387.424 529.405 387.284C529.466 387.144 529.496 386.995 529.496 386.836C529.496 386.64 529.443 386.479 529.335 386.353C529.233 386.223 529.095 386.113 528.922 386.024C528.75 385.931 528.551 385.852 528.327 385.786C528.108 385.716 527.882 385.644 527.648 385.569C527.42 385.495 527.193 385.411 526.969 385.317C526.75 385.219 526.554 385.098 526.381 384.953C526.209 384.809 526.069 384.631 525.961 384.421C525.859 384.207 525.807 383.948 525.807 383.644C525.807 383.374 525.863 383.115 525.975 382.867C526.087 382.615 526.251 382.396 526.465 382.209C526.68 382.018 526.944 381.866 527.256 381.754C527.569 381.642 527.926 381.586 528.327 381.586C528.794 381.586 529.212 381.661 529.58 381.81C529.954 381.955 530.276 382.156 530.546 382.412L530.266 382.867Z" fill="#8D9AA9"/>
<path d="M495.26 171.428C495.26 170.821 495.35 170.254 495.53 169.728C495.71 169.201 495.973 168.748 496.32 168.368C496.66 167.981 497.077 167.678 497.57 167.458C498.063 167.238 498.623 167.128 499.25 167.128C499.783 167.128 500.277 167.208 500.73 167.368C501.183 167.528 501.62 167.744 502.04 168.018C502.453 168.291 502.857 168.608 503.25 168.968C503.637 169.321 504.033 169.698 504.44 170.098L508.3 173.868C508.227 173.601 508.17 173.331 508.13 173.058C508.083 172.784 508.06 172.521 508.06 172.268L508.06 167.468C508.06 167.274 508.117 167.121 508.23 167.008C508.343 166.894 508.49 166.838 508.67 166.838L509.75 166.838L509.75 176.398L509.14 176.398C509.013 176.398 508.883 176.374 508.75 176.328C508.617 176.274 508.493 176.191 508.38 176.078L503.77 171.488C503.383 171.108 503.013 170.761 502.66 170.448C502.3 170.134 501.94 169.868 501.58 169.648C501.22 169.421 500.857 169.248 500.49 169.128C500.117 169.008 499.72 168.948 499.3 168.948C498.88 168.948 498.513 169.014 498.2 169.148C497.88 169.281 497.617 169.464 497.41 169.698C497.203 169.931 497.05 170.204 496.95 170.518C496.843 170.831 496.79 171.168 496.79 171.528C496.79 171.888 496.843 172.221 496.95 172.528C497.057 172.834 497.207 173.108 497.4 173.348C497.587 173.581 497.81 173.781 498.07 173.948C498.33 174.108 498.617 174.221 498.93 174.288C499.123 174.341 499.263 174.421 499.35 174.528C499.437 174.634 499.48 174.774 499.48 174.948C499.48 174.981 499.48 175.018 499.48 175.058C499.473 175.091 499.467 175.131 499.46 175.178L499.3 176.108C498.647 176.014 498.07 175.834 497.57 175.568C497.063 175.301 496.64 174.964 496.3 174.558C495.96 174.144 495.703 173.674 495.53 173.148C495.35 172.614 495.26 172.041 495.26 171.428ZM502.59 154.962C503.843 154.962 504.93 155.099 505.85 155.372C506.763 155.639 507.52 156.005 508.12 156.472C508.72 156.939 509.167 157.492 509.46 158.132C509.753 158.765 509.9 159.445 509.9 160.172C509.9 160.905 509.753 161.589 509.46 162.222C509.167 162.849 508.72 163.395 508.12 163.862C507.52 164.329 506.763 164.695 505.85 164.962C504.93 165.229 503.843 165.362 502.59 165.362C501.337 165.362 500.25 165.229 499.33 164.962C498.41 164.695 497.65 164.329 497.05 163.862C496.443 163.395 495.993 162.849 495.7 162.222C495.407 161.589 495.26 160.905 495.26 160.172C495.26 159.445 495.407 158.765 495.7 158.132C495.993 157.492 496.443 156.939 497.05 156.472C497.65 156.005 498.41 155.639 499.33 155.372C500.25 155.099 501.337 154.962 502.59 154.962ZM502.59 156.812C501.497 156.812 500.58 156.905 499.84 157.092C499.093 157.272 498.493 157.519 498.04 157.832C497.587 158.139 497.263 158.495 497.07 158.902C496.87 159.309 496.77 159.732 496.77 160.172C496.77 160.612 496.87 161.035 497.07 161.442C497.263 161.849 497.587 162.205 498.04 162.512C498.493 162.819 499.093 163.065 499.84 163.252C500.58 163.432 501.497 163.522 502.59 163.522C503.683 163.522 504.6 163.432 505.34 163.252C506.08 163.065 506.677 162.819 507.13 162.512C507.583 162.205 507.91 161.849 508.11 161.442C508.303 161.035 508.4 160.612 508.4 160.172C508.4 159.732 508.303 159.309 508.11 158.902C507.91 158.495 507.583 158.139 507.13 157.832C506.677 157.519 506.08 157.272 505.34 157.092C504.6 156.905 503.683 156.812 502.59 156.812ZM498.88 147.416C499.44 147.416 499.943 147.503 500.39 147.676C500.83 147.849 501.203 148.083 501.51 148.376C501.81 148.663 502.04 148.999 502.2 149.386C502.36 149.773 502.44 150.176 502.44 150.596C502.44 151.049 502.36 151.469 502.2 151.856C502.04 152.236 501.81 152.569 501.51 152.856C501.203 153.143 500.83 153.366 500.39 153.526C499.943 153.686 499.44 153.766 498.88 153.766C498.307 153.766 497.797 153.686 497.35 153.526C496.903 153.366 496.527 153.143 496.22 152.856C495.913 152.569 495.68 152.236 495.52 151.856C495.36 151.469 495.28 151.049 495.28 150.596C495.28 150.149 495.36 149.733 495.52 149.346C495.68 148.953 495.913 148.616 496.22 148.336C496.527 148.049 496.903 147.826 497.35 147.666C497.797 147.499 498.307 147.416 498.88 147.416ZM498.88 148.806C498.44 148.806 498.067 148.853 497.76 148.946C497.453 149.039 497.203 149.169 497.01 149.336C496.81 149.496 496.667 149.686 496.58 149.906C496.493 150.119 496.45 150.349 496.45 150.596C496.45 150.843 496.493 151.076 496.58 151.296C496.667 151.509 496.81 151.696 497.01 151.856C497.203 152.016 497.453 152.143 497.76 152.236C498.067 152.323 498.44 152.366 498.88 152.366C499.313 152.366 499.683 152.323 499.99 152.236C500.29 152.143 500.537 152.016 500.73 151.856C500.917 151.696 501.053 151.509 501.14 151.296C501.22 151.076 501.26 150.843 501.26 150.596C501.26 150.349 501.22 150.119 501.14 149.906C501.053 149.686 500.917 149.496 500.73 149.336C500.537 149.169 500.29 149.039 499.99 148.946C499.683 148.853 499.313 148.806 498.88 148.806ZM495.78 142.406C495.667 142.319 495.58 142.229 495.52 142.136C495.453 142.036 495.42 141.906 495.42 141.746L495.42 140.466L509.46 150.936C509.547 151.003 509.617 151.083 509.67 151.176C509.723 151.269 509.75 151.379 509.75 151.506L509.75 152.826L495.78 142.406ZM506.37 139.496C506.93 139.496 507.43 139.583 507.87 139.756C508.31 139.929 508.683 140.163 508.99 140.456C509.29 140.743 509.52 141.079 509.68 141.466C509.84 141.846 509.92 142.246 509.92 142.666C509.92 143.119 509.84 143.539 509.68 143.926C509.52 144.306 509.29 144.639 508.99 144.926C508.683 145.213 508.31 145.436 507.87 145.596C507.43 145.756 506.93 145.836 506.37 145.836C505.797 145.836 505.287 145.756 504.84 145.596C504.387 145.436 504.007 145.213 503.7 144.926C503.393 144.639 503.16 144.306 503 143.926C502.84 143.539 502.76 143.119 502.76 142.666C502.76 142.219 502.84 141.803 503 141.416C503.16 141.029 503.393 140.693 503.7 140.406C504.007 140.119 504.387 139.896 504.84 139.736C505.287 139.576 505.797 139.496 506.37 139.496ZM506.37 140.876C505.93 140.876 505.557 140.923 505.25 141.016C504.937 141.109 504.683 141.239 504.49 141.406C504.297 141.566 504.157 141.756 504.07 141.976C503.983 142.189 503.94 142.419 503.94 142.666C503.94 142.913 503.983 143.146 504.07 143.366C504.157 143.579 504.297 143.766 504.49 143.926C504.683 144.086 504.937 144.213 505.25 144.306C505.557 144.393 505.93 144.436 506.37 144.436C506.803 144.436 507.17 144.393 507.47 144.306C507.77 144.213 508.017 144.086 508.21 143.926C508.397 143.766 508.533 143.579 508.62 143.366C508.7 143.146 508.74 142.913 508.74 142.666C508.74 142.419 508.7 142.189 508.62 141.976C508.533 141.756 508.397 141.566 508.21 141.406C508.017 141.239 507.77 141.109 507.47 141.016C507.17 140.923 506.803 140.876 506.37 140.876Z" fill="#6D6A6A"/>
<path d="M49.2885 122.248C49.7132 122.248 50.1099 122.311 50.4785 122.437C50.8472 122.563 51.1645 122.747 51.4305 122.99C51.7012 123.228 51.9135 123.52 52.0675 123.865C52.2215 124.21 52.2985 124.602 52.2985 125.041C52.2985 125.414 52.2425 125.76 52.1305 126.077C52.0185 126.394 51.8669 126.7 51.6755 126.994C51.4842 127.283 51.2625 127.566 51.0105 127.841C50.7632 128.112 50.4995 128.389 50.2195 128.674L47.5805 131.376C47.7672 131.325 47.9562 131.285 48.1475 131.257C48.3389 131.224 48.5232 131.208 48.7005 131.208H52.0605C52.1959 131.208 52.3032 131.248 52.3825 131.327C52.4619 131.406 52.5015 131.509 52.5015 131.635V132.391H45.8095V131.964C45.8095 131.875 45.8259 131.784 45.8585 131.691C45.8959 131.598 45.9542 131.511 46.0335 131.432L49.2465 128.205C49.5125 127.934 49.7552 127.675 49.9745 127.428C50.1939 127.176 50.3805 126.924 50.5345 126.672C50.6932 126.42 50.8145 126.166 50.8985 125.909C50.9825 125.648 51.0245 125.37 51.0245 125.076C51.0245 124.782 50.9779 124.525 50.8845 124.306C50.7912 124.082 50.6629 123.898 50.4995 123.753C50.3362 123.608 50.1449 123.501 49.9255 123.431C49.7062 123.356 49.4705 123.319 49.2185 123.319C48.9665 123.319 48.7332 123.356 48.5185 123.431C48.3039 123.506 48.1125 123.611 47.9445 123.746C47.7812 123.877 47.6412 124.033 47.5245 124.215C47.4125 124.397 47.3332 124.598 47.2865 124.817C47.2492 124.952 47.1932 125.05 47.1185 125.111C47.0439 125.172 46.9459 125.202 46.8245 125.202C46.8012 125.202 46.7755 125.202 46.7475 125.202C46.7242 125.197 46.6962 125.193 46.6635 125.188L46.0125 125.076C46.0779 124.619 46.2039 124.215 46.3905 123.865C46.5772 123.51 46.8129 123.214 47.0975 122.976C47.3869 122.738 47.7159 122.558 48.0845 122.437C48.4579 122.311 48.8592 122.248 49.2885 122.248ZM60.7769 127.379C60.7769 128.256 60.6813 129.017 60.4899 129.661C60.3033 130.3 60.0466 130.83 59.7199 131.25C59.3933 131.67 59.0059 131.983 58.5579 132.188C58.1146 132.393 57.6386 132.496 57.1299 132.496C56.6166 132.496 56.1383 132.393 55.6949 132.188C55.2563 131.983 54.8736 131.67 54.5469 131.25C54.2203 130.83 53.9636 130.3 53.7769 129.661C53.5903 129.017 53.4969 128.256 53.4969 127.379C53.4969 126.502 53.5903 125.741 53.7769 125.097C53.9636 124.453 54.2203 123.921 54.5469 123.501C54.8736 123.076 55.2563 122.761 55.6949 122.556C56.1383 122.351 56.6166 122.248 57.1299 122.248C57.6386 122.248 58.1146 122.351 58.5579 122.556C59.0059 122.761 59.3933 123.076 59.7199 123.501C60.0466 123.921 60.3033 124.453 60.4899 125.097C60.6813 125.741 60.7769 126.502 60.7769 127.379ZM59.4819 127.379C59.4819 126.614 59.4166 125.972 59.2859 125.454C59.1599 124.931 58.9873 124.511 58.7679 124.194C58.5533 123.877 58.3036 123.65 58.0189 123.515C57.7343 123.375 57.4379 123.305 57.1299 123.305C56.8219 123.305 56.5256 123.375 56.2409 123.515C55.9563 123.65 55.7066 123.877 55.4919 124.194C55.2773 124.511 55.1046 124.931 54.9739 125.454C54.8479 125.972 54.7849 126.614 54.7849 127.379C54.7849 128.144 54.8479 128.786 54.9739 129.304C55.1046 129.822 55.2773 130.24 55.4919 130.557C55.7066 130.874 55.9563 131.103 56.2409 131.243C56.5256 131.378 56.8219 131.446 57.1299 131.446C57.4379 131.446 57.7343 131.378 58.0189 131.243C58.3036 131.103 58.5533 130.874 58.7679 130.557C58.9873 130.24 59.1599 129.822 59.2859 129.304C59.4166 128.786 59.4819 128.144 59.4819 127.379Z" fill="#8D9AA9"/>
<path d="M49.2885 63.1491C49.7132 63.1491 50.1099 63.2121 50.4785 63.3381C50.8472 63.4641 51.1645 63.6484 51.4305 63.8911C51.7012 64.1291 51.9135 64.4208 52.0675 64.7661C52.2215 65.1114 52.2985 65.5034 52.2985 65.9421C52.2985 66.3154 52.2425 66.6608 52.1305 66.9781C52.0185 67.2954 51.8669 67.6011 51.6755 67.8951C51.4842 68.1844 51.2625 68.4668 51.0105 68.7421C50.7632 69.0128 50.4995 69.2904 50.2195 69.5751L47.5805 72.2771C47.7672 72.2258 47.9562 72.1861 48.1475 72.1581C48.3389 72.1254 48.5232 72.1091 48.7005 72.1091H52.0605C52.1959 72.1091 52.3032 72.1488 52.3825 72.2281C52.4619 72.3074 52.5015 72.4101 52.5015 72.5361V73.2921H45.8095V72.8651C45.8095 72.7764 45.8259 72.6854 45.8585 72.5921C45.8959 72.4988 45.9542 72.4124 46.0335 72.3331L49.2465 69.1061C49.5125 68.8354 49.7552 68.5764 49.9745 68.3291C50.1939 68.0771 50.3805 67.8251 50.5345 67.5731C50.6932 67.3211 50.8145 67.0668 50.8985 66.8101C50.9825 66.5488 51.0245 66.2711 51.0245 65.9771C51.0245 65.6831 50.9779 65.4264 50.8845 65.2071C50.7912 64.9831 50.6629 64.7988 50.4995 64.6541C50.3362 64.5094 50.1449 64.4021 49.9255 64.3321C49.7062 64.2574 49.4705 64.2201 49.2185 64.2201C48.9665 64.2201 48.7332 64.2574 48.5185 64.3321C48.3039 64.4068 48.1125 64.5118 47.9445 64.6471C47.7812 64.7778 47.6412 64.9341 47.5245 65.1161C47.4125 65.2981 47.3332 65.4988 47.2865 65.7181C47.2492 65.8534 47.1932 65.9514 47.1185 66.0121C47.0439 66.0728 46.9459 66.1031 46.8245 66.1031C46.8012 66.1031 46.7755 66.1031 46.7475 66.1031C46.7242 66.0984 46.6962 66.0938 46.6635 66.0891L46.0125 65.9771C46.0779 65.5198 46.2039 65.1161 46.3905 64.7661C46.5772 64.4114 46.8129 64.1151 47.0975 63.8771C47.3869 63.6391 47.7159 63.4594 48.0845 63.3381C48.4579 63.2121 48.8592 63.1491 49.2885 63.1491ZM59.9229 63.8071C59.9229 63.9844 59.8669 64.1314 59.7549 64.2481C59.6429 64.3601 59.4539 64.4161 59.1879 64.4161H56.0379L55.5759 67.0481C56.0986 66.9361 56.5816 66.8801 57.0249 66.8801C57.5476 66.8801 58.0073 66.9571 58.4039 67.1111C58.8053 67.2651 59.1413 67.4774 59.4119 67.7481C59.6826 68.0188 59.8856 68.3384 60.0209 68.7071C60.1609 69.0758 60.2309 69.4771 60.2309 69.9111C60.2309 70.4431 60.1376 70.9238 59.9509 71.3531C59.7643 71.7824 59.5076 72.1511 59.1809 72.4591C58.8589 72.7624 58.4786 72.9958 58.0399 73.1591C57.6013 73.3224 57.1276 73.4041 56.6189 73.4041C56.3249 73.4041 56.0426 73.3738 55.7719 73.3131C55.5013 73.2571 55.2493 73.1801 55.0159 73.0821C54.7826 72.9841 54.5656 72.8721 54.3649 72.7461C54.1643 72.6201 53.9869 72.4871 53.8329 72.3471L54.2109 71.8151C54.2949 71.6938 54.4069 71.6331 54.5469 71.6331C54.6356 71.6331 54.7383 71.6704 54.8549 71.7451C54.9763 71.8151 55.1209 71.8944 55.2889 71.9831C55.4569 72.0718 55.6529 72.1534 55.8769 72.2281C56.1056 72.2981 56.3763 72.3331 56.6889 72.3331C57.0389 72.3331 57.3539 72.2771 57.6339 72.1651C57.9139 72.0531 58.1519 71.8944 58.3479 71.6891C58.5486 71.4791 58.7026 71.2294 58.8099 70.9401C58.9173 70.6508 58.9709 70.3264 58.9709 69.9671C58.9709 69.6544 58.9243 69.3721 58.8309 69.1201C58.7423 68.8681 58.6046 68.6534 58.4179 68.4761C58.2359 68.2988 58.0073 68.1611 57.7319 68.0631C57.4566 67.9651 57.1346 67.9161 56.7659 67.9161C56.5139 67.9161 56.2526 67.9371 55.9819 67.9791C55.7113 68.0211 55.4313 68.0888 55.1419 68.1821L54.3579 67.9511L55.1699 63.2611H59.9229V63.8071Z" fill="#8D9AA9"/>
</svg>
