<svg width="18" height="18" viewBox="0 0 18 18" fill="none" xmlns="http://www.w3.org/2000/svg">
<path fill-rule="evenodd" clip-rule="evenodd" d="M0 9C0 4.02944 4.02944 0 9 0C13.9706 0 18 4.02944 18 9C18 13.9706 13.9706 18 9 18C4.02944 18 0 13.9706 0 9ZM9.00045 4.2C7.69684 4.2 7.53324 4.2057 7.02123 4.229C6.51022 4.2524 6.16142 4.3333 5.85622 4.452C5.54051 4.5746 5.27271 4.73861 5.00591 5.00551C4.73891 5.27231 4.5749 5.54011 4.4519 5.85572C4.3329 6.16102 4.2519 6.50992 4.2289 7.02073C4.206 7.53273 4.2 7.69644 4.2 9.00005C4.2 10.3037 4.2058 10.4668 4.229 10.9788C4.2525 11.4898 4.3334 11.8386 4.452 12.1438C4.5747 12.4595 4.73871 12.7273 5.00561 12.9941C5.27231 13.2611 5.54011 13.4255 5.85562 13.5481C6.16102 13.6668 6.50992 13.7477 7.02083 13.7711C7.53284 13.7944 7.69634 13.8001 8.99985 13.8001C10.3036 13.8001 10.4667 13.7944 10.9787 13.7711C11.4897 13.7477 11.8389 13.6668 12.1443 13.5481C12.4599 13.4255 12.7273 13.2611 12.994 12.9941C13.261 12.7273 13.425 12.4595 13.548 12.1439C13.666 11.8386 13.747 11.4897 13.771 10.9789C13.794 10.4669 13.8 10.3037 13.8 9.00005C13.8 7.69644 13.794 7.53284 13.771 7.02083C13.747 6.50982 13.666 6.16102 13.548 5.85582C13.425 5.54011 13.261 5.27231 12.994 5.00551C12.727 4.73851 12.46 4.5745 12.144 4.452C11.838 4.3333 11.489 4.2524 10.978 4.229C10.466 4.2057 10.303 4.2 8.99895 4.2H9.00045Z" fill="#C1C1C1"/>
<path fill-rule="evenodd" clip-rule="evenodd" d="M8.56985 5.06501C8.69765 5.06481 8.84025 5.06501 9.00045 5.06501C10.2821 5.06501 10.434 5.06961 10.9401 5.09261C11.4081 5.11401 11.6621 5.19221 11.8313 5.25791C12.0553 5.34491 12.215 5.44891 12.3829 5.61691C12.5509 5.78492 12.6549 5.94492 12.7421 6.16892C12.8078 6.33792 12.8861 6.59192 12.9074 7.05993C12.9304 7.56594 12.9354 7.71794 12.9354 8.99895C12.9354 10.28 12.9304 10.432 12.9074 10.938C12.886 11.406 12.8078 11.66 12.7421 11.829C12.6551 12.053 12.5509 12.2125 12.3829 12.3804C12.2149 12.5484 12.0554 12.6524 11.8313 12.7394C11.6623 12.8054 11.4081 12.8834 10.9401 12.9048C10.4341 12.9278 10.2821 12.9328 9.00045 12.9328C7.71874 12.9328 7.56684 12.9278 7.06083 12.9048C6.59283 12.8832 6.33882 12.805 6.16952 12.7393C5.94552 12.6523 5.78552 12.5483 5.61752 12.3803C5.44951 12.2123 5.34551 12.0527 5.25831 11.8286C5.19261 11.6596 5.11431 11.4056 5.09301 10.9376C5.07001 10.4316 5.06541 10.2796 5.06541 8.99775C5.06541 7.71594 5.07001 7.56474 5.09301 7.05873C5.11441 6.59072 5.19261 6.33672 5.25831 6.16752C5.34531 5.94352 5.44951 5.78352 5.61752 5.61551C5.78552 5.44751 5.94552 5.34351 6.16952 5.25631C6.33872 5.19031 6.59283 5.11231 7.06083 5.09081C7.50364 5.07081 7.67524 5.06481 8.56985 5.06381V5.06501ZM11.5627 5.86202C11.2447 5.86202 10.9867 6.11972 10.9867 6.43782C10.9867 6.75583 11.2447 7.01383 11.5627 7.01383C11.8807 7.01383 12.1387 6.75583 12.1387 6.43782C12.1387 6.11982 11.8807 5.86202 11.5627 5.86202ZM9.00045 6.53502C7.63914 6.53502 6.53542 7.63874 6.53542 9.00005C6.53542 10.3614 7.63914 11.4646 9.00045 11.4646C10.3618 11.4646 11.4651 10.3614 11.4651 9.00005C11.4651 7.63874 10.3618 6.53502 9.00045 6.53502Z" fill="#C1C1C1"/>
<path fill-rule="evenodd" clip-rule="evenodd" d="M9.00045 7.40003C9.88406 7.40003 10.6005 8.11634 10.6005 9.00005C10.6005 9.88366 9.88406 10.6001 9.00045 10.6001C8.11674 10.6001 7.40043 9.88366 7.40043 9.00005C7.40043 8.11634 8.11674 7.40003 9.00045 7.40003Z" fill="#C1C1C1"/>
</svg>
