<svg width="18" height="19" viewBox="0 0 18 19" fill="none" xmlns="http://www.w3.org/2000/svg">
<path fill-rule="evenodd" clip-rule="evenodd" d="M0.333252 9.62091C0.333252 4.61178 4.13883 0.551086 8.83325 0.551086C13.5277 0.551086 17.3333 4.61178 17.3333 9.62091C17.3333 14.63 13.5277 18.6907 8.83325 18.6907C4.13883 18.6907 0.333252 14.63 0.333252 9.62091ZM8.83368 4.78367C7.60249 4.78367 7.44797 4.78942 6.96441 4.8129C6.4818 4.83648 6.15237 4.91801 5.86412 5.03763C5.56596 5.16118 5.31304 5.32646 5.06105 5.59543C4.80889 5.8643 4.65399 6.13418 4.53783 6.45223C4.42544 6.75991 4.34894 7.11152 4.32721 7.62628C4.30559 8.14226 4.29992 8.30723 4.29992 9.62096C4.29992 10.9347 4.3054 11.0991 4.32731 11.615C4.3495 12.13 4.42591 12.4815 4.53792 12.7891C4.65381 13.1072 4.8087 13.3771 5.06077 13.646C5.31266 13.9151 5.56558 14.0807 5.86356 14.2043C6.15199 14.3239 6.48151 14.4054 6.96404 14.429C7.4476 14.4525 7.60201 14.4583 8.83311 14.4583C10.0644 14.4583 10.2184 14.4525 10.702 14.429C11.1846 14.4054 11.5144 14.3239 11.8029 14.2043C12.1009 14.0807 12.3535 13.9151 12.6054 13.646C12.8575 13.3771 13.0124 13.1072 13.1286 12.7892C13.24 12.4815 13.3165 12.1299 13.3392 11.6151C13.3609 11.0992 13.3666 10.9347 13.3666 9.62096C13.3666 8.30723 13.3609 8.14236 13.3392 7.62639C13.3165 7.11142 13.24 6.75991 13.1286 6.45233C13.0124 6.13418 12.8575 5.8643 12.6054 5.59543C12.3532 5.32635 12.101 5.16108 11.8026 5.03763C11.5136 4.91801 11.184 4.83648 10.7013 4.8129C10.2178 4.78942 10.0638 4.78367 8.83226 4.78367H8.83368Z" fill="#C1C1C1"/>
<path fill-rule="evenodd" clip-rule="evenodd" d="M8.427 5.65539C8.5477 5.65519 8.68238 5.65539 8.83368 5.65539C10.0441 5.65539 10.1876 5.66003 10.6655 5.68321C11.1075 5.70477 11.3474 5.78358 11.5072 5.84979C11.7188 5.93747 11.8696 6.04227 12.0282 6.21158C12.1869 6.38088 12.2851 6.54213 12.3674 6.76787C12.4295 6.93818 12.5034 7.19415 12.5236 7.66579C12.5453 8.17572 12.55 8.3289 12.55 9.61985C12.55 10.9108 12.5453 11.064 12.5236 11.5739C12.5034 12.0456 12.4295 12.3015 12.3674 12.4718C12.2853 12.6976 12.1869 12.8583 12.0282 13.0275C11.8695 13.1968 11.7189 13.3016 11.5072 13.3893C11.3476 13.4558 11.1075 13.5344 10.6655 13.556C10.1876 13.5792 10.0441 13.5842 8.83368 13.5842C7.62317 13.5842 7.47971 13.5792 7.00181 13.556C6.55981 13.5342 6.31992 13.4554 6.16002 13.3892C5.94846 13.3015 5.79735 13.1967 5.63868 13.0274C5.48001 12.8581 5.38179 12.6973 5.29943 12.4714C5.23738 12.3011 5.16343 12.0451 5.14332 11.5735C5.12159 11.0636 5.11725 10.9104 5.11725 9.61864C5.11725 8.32689 5.12159 8.17451 5.14332 7.66458C5.16353 7.19294 5.23738 6.93697 5.29943 6.76646C5.3816 6.54072 5.48001 6.37947 5.63868 6.21017C5.79735 6.04086 5.94846 5.93605 6.16002 5.84818C6.31982 5.78166 6.55981 5.70306 7.00181 5.68139C7.42002 5.66124 7.58209 5.65519 8.427 5.65418V5.65539ZM11.2536 6.45858C10.9532 6.45858 10.7096 6.71828 10.7096 7.03886C10.7096 7.35933 10.9532 7.61933 11.2536 7.61933C11.5539 7.61933 11.7976 7.35933 11.7976 7.03886C11.7976 6.71839 11.5539 6.45858 11.2536 6.45858ZM8.83368 7.13681C7.54799 7.13681 6.5056 8.24909 6.5056 9.62096C6.5056 10.9928 7.54799 12.1046 8.83368 12.1046C10.1194 12.1046 11.1614 10.9928 11.1614 9.62096C11.1614 8.24909 10.1194 7.13681 8.83368 7.13681Z" fill="#C1C1C1"/>
<path fill-rule="evenodd" clip-rule="evenodd" d="M8.83368 8.00853C9.6682 8.00853 10.3448 8.7304 10.3448 9.62096C10.3448 10.5114 9.6682 11.2334 8.83368 11.2334C7.99906 11.2334 7.32255 10.5114 7.32255 9.62096C7.32255 8.7304 7.99906 8.00853 8.83368 8.00853Z" fill="#C1C1C1"/>
</svg>
