<svg width="24" height="24" viewBox="0 0 24 24" fill="none" xmlns="http://www.w3.org/2000/svg">
<path fill-rule="evenodd" clip-rule="evenodd" d="M18.319 14.433C19.566 12.8253 20.1537 10.803 19.9625 8.77745C19.7714 6.75187 18.8157 4.87521 17.29 3.52924C15.7643 2.18327 13.7831 1.4691 11.7495 1.53203C9.71587 1.59496 7.78263 2.43025 6.34304 3.86798C4.9022 5.30671 4.06417 7.2407 3.99974 9.27585C3.93531 11.311 4.64932 13.2941 5.99627 14.8211C7.34322 16.3481 9.22174 17.304 11.249 17.4941C13.2763 17.6841 15.2997 17.094 16.907 15.844L16.95 15.889L21.192 20.132C21.285 20.2249 21.3953 20.2986 21.5166 20.3489C21.638 20.3992 21.7681 20.425 21.8995 20.425C22.0309 20.425 22.161 20.3992 22.2824 20.3489C22.4038 20.2986 22.5141 20.2249 22.607 20.132C22.7 20.0391 22.7736 19.9288 22.8239 19.8074C22.8742 19.686 22.9001 19.5559 22.9001 19.4245C22.9001 19.2931 22.8742 19.163 22.8239 19.0416C22.7736 18.9202 22.7 18.8099 22.607 18.717L18.364 14.475C18.3494 14.4606 18.3344 14.4466 18.319 14.433ZM16.243 5.28298C16.8076 5.83846 17.2567 6.50023 17.5642 7.23012C17.8718 7.96001 18.0318 8.74357 18.035 9.5356C18.0383 10.3276 17.8846 11.1125 17.583 11.8448C17.2814 12.5772 16.8378 13.2426 16.2777 13.8027C15.7177 14.3627 15.0523 14.8064 14.3199 15.108C13.5875 15.4096 12.8027 15.5632 12.0107 15.56C11.2186 15.5568 10.4351 15.3967 9.70518 15.0892C8.97529 14.7816 8.31352 14.3326 7.75804 13.768C6.64796 12.6397 6.0287 11.1184 6.03514 9.5356C6.04159 7.95278 6.67322 6.43663 7.79245 5.31739C8.91168 4.19816 10.4278 3.56653 12.0107 3.56008C13.5935 3.55364 15.1147 4.1729 16.243 5.28298Z" fill="white"/>
</svg>
