<svg width="82" height="31" viewBox="0 0 82 31" fill="none" xmlns="http://www.w3.org/2000/svg">
<path d="M0 1.12759H4.80243C5.60758 1.12759 6.35573 1.18928 7.05757 1.30538C7.75585 1.42511 8.36149 1.62467 8.87451 1.90405C9.38753 2.18343 9.79367 2.55714 10.0894 3.01794C10.3851 3.47873 10.5347 4.052 10.5347 4.73775C10.5347 5.39085 10.3851 5.96049 10.0894 6.44306C9.79367 6.92562 9.3911 7.32473 8.8852 7.63314C8.37931 7.94517 7.78079 8.17738 7.09676 8.32614C6.41274 8.47853 5.67171 8.5511 4.88437 8.5511H2.92492V12.6474H0V1.12759ZM4.68486 6.73695C6.67281 6.73695 7.67034 6.07297 7.67034 4.74501C7.67034 4.07015 7.41027 3.6021 6.89013 3.34449C6.36998 3.08688 5.60046 2.95626 4.58867 2.95626H2.92492V6.74058H4.68486V6.73695Z" fill="black"/>
<path d="M19.1741 12.6547L16.1708 8.29349H14.133V12.6547H11.208V1.12759H16.3097C17.0757 1.12759 17.7918 1.18565 18.4651 1.29812C19.1385 1.41423 19.7192 1.6029 20.2144 1.87502C20.7096 2.14352 21.0979 2.50272 21.3794 2.949C21.6608 3.39528 21.8033 3.95041 21.8033 4.61439C21.8033 5.48518 21.5504 6.1927 21.0409 6.73332C20.535 7.27393 19.8581 7.67305 19.0138 7.93428L22.4339 12.6547H19.1741ZM14.133 6.47208H16.0318C16.9795 6.47208 17.7027 6.31969 18.1979 6.01129C18.6931 5.70288 18.9389 5.23846 18.9389 4.61802C18.9389 3.99758 18.6931 3.56218 18.1979 3.31909C17.7027 3.07599 16.9831 2.95263 16.0318 2.95263H14.133V6.47208Z" fill="black"/>
<path d="M28.526 12.8724C27.5498 12.8724 26.6627 12.7345 25.8683 12.4588C25.0702 12.183 24.3827 11.7839 23.8019 11.2578C23.2212 10.7353 22.7723 10.1004 22.4588 9.35658C22.1418 8.61278 21.985 7.77464 21.985 6.84217C21.985 5.90607 22.1418 5.07156 22.4588 4.33501C22.7759 3.59847 23.2248 2.9744 23.8019 2.46644C24.3827 1.95848 25.0702 1.57025 25.8683 1.30538C26.6663 1.04052 27.5534 0.909897 28.526 0.909897C29.4879 0.909897 30.3714 1.04414 31.1766 1.31627C31.9817 1.58476 32.6729 1.97299 33.2536 2.47732C33.8343 2.98166 34.2832 3.6021 34.5967 4.33864C34.9138 5.07519 35.0705 5.91332 35.0705 6.8458C35.0705 7.7819 34.9138 8.62003 34.5967 9.36021C34.2796 10.104 33.8307 10.7353 33.2536 11.2614C32.6729 11.7875 31.9817 12.1867 31.1766 12.4624C30.3714 12.7345 29.4879 12.8724 28.526 12.8724ZM28.526 10.8805C29.0675 10.8805 29.5556 10.7861 29.9974 10.6011C30.4391 10.4124 30.8132 10.1439 31.1231 9.79198C31.4331 9.44003 31.6682 9.01189 31.8357 8.51481C31.9996 8.01774 32.0815 7.46261 32.0815 6.84942C32.0815 5.60492 31.7609 4.63253 31.1231 3.9359C30.4854 3.23927 29.6162 2.89095 28.5224 2.89095C27.4287 2.89095 26.563 3.23927 25.9217 3.9359C25.284 4.63253 24.9634 5.60129 24.9634 6.84942C24.9634 7.46261 25.0453 8.01774 25.2092 8.51481C25.3731 9.01189 25.6118 9.44003 25.9217 9.79198C26.2317 10.1439 26.6057 10.416 27.0475 10.6011C27.4928 10.7861 27.9845 10.8805 28.526 10.8805Z" fill="black"/>
<path d="M35.9576 1.12759H39.9692C41.0878 1.12759 42.0925 1.24007 42.9832 1.46865C43.8738 1.69724 44.6291 2.04918 45.2561 2.52086C45.8831 2.99254 46.3641 3.58758 46.699 4.30599C47.0339 5.02076 47.2049 5.86978 47.2049 6.8458C47.2049 7.81092 47.0374 8.65995 46.699 9.38561C46.3641 10.1113 45.8903 10.7172 45.2739 11.1998C44.6612 11.6823 43.9201 12.0452 43.0508 12.2919C42.1816 12.535 41.2054 12.6583 40.1259 12.6583H35.9541V1.12759H35.9576ZM39.7946 10.8006C40.4786 10.8006 41.095 10.7244 41.6436 10.5757C42.1887 10.4233 42.6554 10.1911 43.0366 9.8718C43.4178 9.55251 43.7135 9.14614 43.9166 8.64543C44.1196 8.14473 44.223 7.54243 44.223 6.83491C44.223 6.12739 44.1196 5.52509 43.9166 5.03165C43.7135 4.5382 43.4178 4.13546 43.0366 3.83068C42.6554 3.52227 42.1887 3.30095 41.6436 3.15944C41.095 3.01794 40.4786 2.949 39.7946 2.949H38.8861V10.8006H39.7946V10.8006Z" fill="black"/>
<path d="M53.7102 12.8724C52.8125 12.8724 52.018 12.7708 51.3197 12.5676C50.6214 12.3644 50.0265 12.0451 49.5313 11.6098C49.0361 11.1744 48.662 10.612 48.4055 9.92622C48.149 9.24047 48.0207 8.42048 48.0207 7.46623V1.12759H50.9456V7.66942C50.9456 8.27172 51.0098 8.77968 51.1345 9.18968C51.2592 9.59968 51.4408 9.92985 51.6795 10.1802C51.9182 10.4306 52.2068 10.6083 52.5488 10.7172C52.8908 10.826 53.2792 10.8805 53.7138 10.8805C54.1484 10.8805 54.5403 10.826 54.8895 10.7172C55.2386 10.6083 55.5379 10.4306 55.7873 10.1802C56.0366 9.92985 56.229 9.6033 56.3608 9.18968C56.4927 8.77968 56.5568 8.27172 56.5568 7.66942V1.12759H59.3641V7.46623C59.3641 8.42048 59.2394 9.24047 58.9901 9.92622C58.7407 10.612 58.3702 11.1744 57.8821 11.6098C57.394 12.0451 56.8026 12.3644 56.1043 12.5676C55.4025 12.7708 54.6045 12.8724 53.7102 12.8724Z" fill="black"/>
<path d="M66.8742 12.8724C65.9514 12.8724 65.0821 12.7418 64.2663 12.4842C63.4505 12.2266 62.7379 11.8456 62.1323 11.3485C61.5266 10.8514 61.0493 10.231 60.7001 9.49446C60.351 8.75791 60.1764 7.90526 60.1764 6.94013C60.1764 5.99677 60.3581 5.14775 60.7215 4.40032C61.0849 3.65289 61.573 3.01794 62.1929 2.49909C62.8128 1.98025 63.5324 1.58476 64.3589 1.31627C65.1819 1.04777 66.0547 0.909897 66.9775 0.909897C67.9144 0.909897 68.7445 1.05866 69.4678 1.35255C70.191 1.65007 70.793 1.99476 71.2669 2.38662L69.7243 3.85245C69.3537 3.57307 68.9547 3.34086 68.5201 3.15944C68.0854 2.97803 67.5902 2.88732 67.038 2.88732C66.4858 2.88732 65.9692 2.97803 65.4954 3.15944C65.0216 3.34086 64.6119 3.6021 64.2699 3.94678C63.9279 4.28784 63.6571 4.7051 63.4612 5.19129C63.2616 5.68111 63.1655 6.23624 63.1655 6.85668C63.1655 7.47712 63.2545 8.03951 63.4327 8.54021C63.6108 9.03729 63.8673 9.4618 64.2022 9.81012C64.5371 10.1584 64.9396 10.4233 65.4063 10.6047C65.8731 10.7861 66.3968 10.8768 66.9775 10.8768C67.6116 10.8768 68.1745 10.7716 68.6662 10.5575C69.1614 10.3435 69.6067 10.0714 70.0021 9.74118L71.5448 11.1744C70.9391 11.7331 70.248 12.1576 69.4678 12.4443C68.6875 12.7309 67.8254 12.8724 66.8742 12.8724Z" fill="black"/>
<path d="M71.9153 1.12759H80.8896V3.05785H74.8402V5.70651H79.9811V7.63676H74.8402V10.7208H81.1069V12.6511H71.9153V1.12759Z" fill="black"/>
<path d="M32.0072 18.2184H35.2557L37.7502 23.6233C37.9075 23.9873 38.0612 24.3585 38.2041 24.7334C38.3506 25.1083 38.4936 25.4832 38.6401 25.858H38.7402C38.8974 25.4832 39.0475 25.1083 39.1869 24.7334C39.3263 24.3585 39.4728 23.9873 39.6336 23.6233L42.0674 18.2184H45.316V29.7816H42.6571V24.9518C42.6571 24.6824 42.6714 24.3803 42.6964 24.0528C42.7214 23.7252 42.7536 23.3904 42.7857 23.0519C42.8179 22.7134 42.8536 22.3785 42.8929 22.051C42.9322 21.7234 42.9716 21.4249 43.0109 21.152H42.9323L41.7458 23.8708L39.4907 28.7298H37.8074L35.5309 23.8708L34.3623 21.152H34.2837C34.323 21.4213 34.3623 21.7234 34.4016 22.051C34.4409 22.3785 34.4802 22.7134 34.5195 23.0519C34.5588 23.3904 34.5946 23.7252 34.6196 24.0528C34.6482 24.3803 34.6589 24.6788 34.6589 24.9518V29.7816H32V18.2184H32.0072Z" fill="black"/>
<path d="M53.8395 26.8116H49.0792L48.0464 29.7816H45.073L49.7761 18.2184H53.2248L57.9458 29.7816H54.8723L53.8395 26.8116ZM53.2069 25.0173L52.7709 23.7507C52.5458 23.1465 52.3313 22.5205 52.1276 21.8762C51.9239 21.232 51.7095 20.5951 51.4843 19.9691H51.4057C51.2199 20.606 51.0233 21.2429 50.8089 21.8835C50.5945 22.5241 50.38 23.1465 50.1549 23.7507L49.7189 25.0173H53.2069Z" fill="black"/>
<path d="M59.0751 20.1547H54.9509V18.2184H66.1762V20.1547H62.0128V29.7816H59.0787V20.1547H59.0751Z" fill="black"/>
<path d="M66.5729 18.2184H69.507V29.7816H66.5729V18.2184Z" fill="black"/>
<path d="M77.1227 30C76.1971 30 75.3251 29.869 74.5067 29.6106C73.6883 29.3521 72.9736 28.97 72.366 28.4713C71.7585 27.9727 71.2796 27.3503 70.9294 26.6115C70.5791 25.8726 70.404 25.0173 70.404 24.0491C70.404 23.1028 70.5863 22.2511 70.9508 21.5014C71.3153 20.7516 71.8049 20.1146 72.4268 19.5942C73.0486 19.0737 73.7705 18.677 74.5996 18.4076C75.4252 18.1383 76.3008 18 77.2264 18C78.1663 18 78.999 18.1492 79.7245 18.444C80.4499 18.7425 81.0539 19.0883 81.5292 19.4813L79.9818 20.9518C79.6101 20.6715 79.2098 20.4386 78.7738 20.2566C78.3378 20.0746 77.8411 19.9836 77.2871 19.9836C76.7332 19.9836 76.215 20.0746 75.7397 20.2566C75.2644 20.4386 74.8534 20.7006 74.5103 21.0464C74.1672 21.3885 73.8956 21.8071 73.699 22.2948C73.4989 22.7862 73.4024 23.343 73.4024 23.9654C73.4024 24.5878 73.4918 25.152 73.6705 25.6542C73.8491 26.1529 74.1065 26.5787 74.4424 26.9281C74.7783 27.2775 75.1822 27.5432 75.6503 27.7252C76.1185 27.9072 76.6439 27.9982 77.2264 27.9982C77.8625 27.9982 78.4272 27.8926 78.9204 27.6779C79.4171 27.4631 79.8638 27.1902 80.2605 26.859L81.808 28.2966C81.2005 28.8571 80.5071 29.283 79.7245 29.5705C78.9382 29.8581 78.0734 30 77.1227 30Z" fill="black"/>
<path fill-rule="evenodd" clip-rule="evenodd" d="M7.27713 30.8225H21.7229C25.7413 30.8225 29 27.5037 29 23.4113C29 19.3188 25.7413 16 21.7229 16H7.27713C3.25872 16 0 19.3188 0 23.4113C0 27.5037 3.25872 30.8225 7.27713 30.8225ZM11.9203 28.8181C12.6947 29.084 13.5541 29.2184 14.5015 29.2184C15.4342 29.2184 16.2936 29.084 17.0709 28.8211C17.8511 28.5523 18.5228 28.1639 19.086 27.6561C19.6491 27.1483 20.0832 26.5329 20.3912 25.813C20.6992 25.0931 20.8517 24.2805 20.8517 23.3724C20.8517 22.4643 20.6992 21.6548 20.3912 20.9379C20.0832 20.2209 19.6491 19.6205 19.086 19.1306C18.5228 18.6407 17.8511 18.2673 17.0709 18.0044C16.2907 17.7415 15.4342 17.6101 14.5015 17.6101C13.5541 17.6101 12.6947 17.7386 11.9203 17.9955C11.1489 18.2524 10.4801 18.6287 9.91696 19.1216C9.3538 19.6145 8.91969 20.2209 8.61171 20.9349C8.30373 21.6518 8.15121 22.4643 8.15121 23.3694C8.15121 24.2746 8.30373 25.0901 8.61171 25.81C8.91969 26.5299 9.3538 27.1453 9.91696 27.6531C10.4772 28.1639 11.146 28.5523 11.9203 28.8181ZM15.9299 27.0109C15.5017 27.1931 15.0265 27.2827 14.5015 27.2827C13.9764 27.2827 13.5013 27.1931 13.073 27.0109C12.6448 26.8286 12.2781 26.5688 11.979 26.2252C11.6798 25.8817 11.4481 25.4695 11.2897 24.9855C11.1283 24.5046 11.0492 23.9639 11.0492 23.3694C11.0492 22.1596 11.3571 21.2187 11.979 20.5435C12.5979 19.8684 13.4397 19.5309 14.5015 19.5309C15.5633 19.5309 16.4021 19.8684 17.024 20.5435C17.6429 21.2187 17.9538 22.1596 17.9538 23.3694C17.9538 23.9639 17.8717 24.5016 17.7133 24.9855C17.5549 25.4695 17.3232 25.8817 17.024 26.2252C16.7219 26.5688 16.3581 26.8286 15.9299 27.0109Z" fill="black"/>
</svg>
