<svg width="175" height="18" viewBox="0 0 175 18" fill="none" xmlns="http://www.w3.org/2000/svg">
<g clip-path="url(#clip0)">
<path d="M0 3.1276H4.80243C5.60758 3.1276 6.35573 3.18928 7.05757 3.30538C7.75585 3.42512 8.3615 3.62467 8.87451 3.90405C9.38753 4.18343 9.79367 4.55715 10.0894 5.01794C10.3851 5.47873 10.5347 6.05201 10.5347 6.73776C10.5347 7.39085 10.3851 7.96049 10.0894 8.44306C9.79367 8.92562 9.3911 9.32473 8.8852 9.63314C8.37931 9.94517 7.78079 10.1774 7.09676 10.3261C6.41274 10.4785 5.67171 10.5511 4.88437 10.5511H2.92492V14.6475H0V3.1276ZM4.68486 8.73695C6.67281 8.73695 7.67034 8.07297 7.67034 6.74501C7.67034 6.07015 7.41027 5.6021 6.89013 5.34449C6.36998 5.08688 5.60046 4.95626 4.58867 4.95626H2.92492V8.74058H4.68486V8.73695Z" fill="black"/>
<path d="M19.1741 14.6547L16.1708 10.2935H14.133V14.6547H11.208V3.1276H16.3097C17.0757 3.1276 17.7918 3.18565 18.4651 3.29813C19.1385 3.41423 19.7192 3.6029 20.2144 3.87503C20.7096 4.14352 21.0979 4.50272 21.3794 4.949C21.6608 5.39528 21.8033 5.95041 21.8033 6.61439C21.8033 7.48518 21.5504 8.1927 21.0409 8.73332C20.535 9.27394 19.8581 9.67305 19.0138 9.93429L22.4339 14.6547H19.1741ZM14.133 8.47208H16.0318C16.9795 8.47208 17.7027 8.31969 18.1979 8.01129C18.6931 7.70288 18.9389 7.23846 18.9389 6.61802C18.9389 5.99758 18.6931 5.56219 18.1979 5.31909C17.7027 5.07599 16.9831 4.95263 16.0318 4.95263H14.133V8.47208Z" fill="black"/>
<path d="M28.526 14.8724C27.5498 14.8724 26.6627 14.7345 25.8683 14.4588C25.0702 14.183 24.3827 13.7839 23.8019 13.2578C23.2212 12.7353 22.7723 12.1004 22.4588 11.3566C22.1418 10.6128 21.985 9.77464 21.985 8.84217C21.985 7.90607 22.1418 7.07156 22.4588 6.33501C22.7759 5.59847 23.2248 4.9744 23.8019 4.46644C24.3827 3.95848 25.0702 3.57025 25.8683 3.30538C26.6663 3.04052 27.5534 2.9099 28.526 2.9099C29.4879 2.9099 30.3714 3.04415 31.1766 3.31627C31.9817 3.58476 32.6729 3.97299 33.2536 4.47732C33.8343 4.98166 34.2832 5.6021 34.5967 6.33864C34.9138 7.07519 35.0705 7.91332 35.0705 8.8458C35.0705 9.7819 34.9138 10.62 34.5967 11.3602C34.2796 12.104 33.8307 12.7353 33.2536 13.2614C32.6729 13.7875 31.9817 14.1867 31.1766 14.4624C30.3714 14.7345 29.4879 14.8724 28.526 14.8724ZM28.526 12.8805C29.0675 12.8805 29.5556 12.7861 29.9974 12.6011C30.4391 12.4124 30.8132 12.1439 31.1231 11.792C31.4331 11.44 31.6682 11.0119 31.8357 10.5148C31.9996 10.0177 32.0815 9.46261 32.0815 8.84943C32.0815 7.60492 31.7609 6.63253 31.1231 5.9359C30.4854 5.23927 29.6162 4.89095 28.5224 4.89095C27.4287 4.89095 26.563 5.23927 25.9217 5.9359C25.284 6.63253 24.9634 7.60129 24.9634 8.84943C24.9634 9.46261 25.0453 10.0177 25.2092 10.5148C25.3731 11.0119 25.6118 11.44 25.9217 11.792C26.2317 12.1439 26.6057 12.416 27.0475 12.6011C27.4928 12.7861 27.9845 12.8805 28.526 12.8805Z" fill="black"/>
<path d="M35.9576 3.1276H39.9692C41.0878 3.1276 42.0925 3.24007 42.9832 3.46866C43.8738 3.69724 44.6291 4.04918 45.2561 4.52086C45.8831 4.99254 46.3641 5.58758 46.699 6.30599C47.0339 7.02076 47.2049 7.86978 47.2049 8.8458C47.2049 9.81093 47.0374 10.6599 46.699 11.3856C46.3641 12.1113 45.8903 12.7172 45.2739 13.1998C44.6612 13.6823 43.9201 14.0452 43.0508 14.2919C42.1816 14.535 41.2054 14.6583 40.1259 14.6583H35.9541V3.1276H35.9576ZM39.7946 12.8006C40.4786 12.8006 41.095 12.7245 41.6436 12.5757C42.1887 12.4233 42.6554 12.1911 43.0366 11.8718C43.4178 11.5525 43.7135 11.1461 43.9166 10.6454C44.1196 10.1447 44.223 9.54243 44.223 8.83491C44.223 8.12739 44.1196 7.5251 43.9166 7.03165C43.7135 6.5382 43.4178 6.13546 43.0366 5.83068C42.6554 5.52227 42.1887 5.30095 41.6436 5.15944C41.095 5.01794 40.4786 4.949 39.7946 4.949H38.8861V12.8006H39.7946Z" fill="black"/>
<path d="M53.7102 14.8724C52.8125 14.8724 52.018 14.7708 51.3197 14.5676C50.6214 14.3644 50.0265 14.0452 49.5313 13.6098C49.0361 13.1744 48.662 12.612 48.4055 11.9262C48.149 11.2405 48.0207 10.4205 48.0207 9.46624V3.1276H50.9456V9.66942C50.9456 10.2717 51.0098 10.7797 51.1345 11.1897C51.2592 11.5997 51.4408 11.9299 51.6795 12.1802C51.9182 12.4306 52.2068 12.6083 52.5488 12.7172C52.8908 12.826 53.2792 12.8805 53.7138 12.8805C54.1484 12.8805 54.5403 12.826 54.8895 12.7172C55.2386 12.6083 55.5379 12.4306 55.7873 12.1802C56.0366 11.9299 56.229 11.6033 56.3608 11.1897C56.4927 10.7797 56.5568 10.2717 56.5568 9.66942V3.1276H59.3641V9.46624C59.3641 10.4205 59.2394 11.2405 58.9901 11.9262C58.7407 12.612 58.3702 13.1744 57.8821 13.6098C57.394 14.0452 56.8026 14.3644 56.1043 14.5676C55.4025 14.7708 54.6045 14.8724 53.7102 14.8724Z" fill="black"/>
<path d="M66.8742 14.8724C65.9514 14.8724 65.0821 14.7418 64.2663 14.4842C63.4505 14.2266 62.7379 13.8456 62.1323 13.3485C61.5266 12.8514 61.0493 12.231 60.7001 11.4945C60.351 10.7579 60.1764 9.90526 60.1764 8.94013C60.1764 7.99678 60.3581 7.14775 60.7215 6.40032C61.0849 5.65289 61.573 5.01794 62.1929 4.49909C62.8128 3.98025 63.5324 3.58476 64.3589 3.31627C65.1819 3.04777 66.0547 2.9099 66.9775 2.9099C67.9144 2.9099 68.7445 3.05866 69.4678 3.35255C70.191 3.65007 70.793 3.99476 71.2669 4.38662L69.7243 5.85245C69.3537 5.57307 68.9547 5.34086 68.5201 5.15945C68.0854 4.97803 67.5902 4.88732 67.038 4.88732C66.4858 4.88732 65.9692 4.97803 65.4954 5.15945C65.0216 5.34086 64.6119 5.6021 64.2699 5.94679C63.9279 6.28785 63.6571 6.7051 63.4612 7.19129C63.2616 7.68111 63.1655 8.23624 63.1655 8.85668C63.1655 9.47712 63.2545 10.0395 63.4327 10.5402C63.6108 11.0373 63.8673 11.4618 64.2022 11.8101C64.5371 12.1584 64.9396 12.4233 65.4063 12.6047C65.8731 12.7861 66.3968 12.8768 66.9775 12.8768C67.6116 12.8768 68.1745 12.7716 68.6662 12.5575C69.1614 12.3435 69.6067 12.0714 70.0021 11.7412L71.5448 13.1744C70.9391 13.7331 70.248 14.1576 69.4678 14.4443C68.6875 14.7309 67.8254 14.8724 66.8742 14.8724Z" fill="black"/>
<path d="M71.9153 3.1276H80.8896V5.05785H74.8402V7.70651H79.9811V9.63677H74.8402V12.7208H81.1069V14.6511H71.9153V3.1276Z" fill="black"/>
<path d="M125.362 2.97158H128.6L131.087 8.35961C131.244 8.72244 131.397 9.09252 131.539 9.46624C131.686 9.83995 131.828 10.2137 131.974 10.5874H132.074C132.231 10.2137 132.38 9.83995 132.519 9.46624C132.658 9.09252 132.804 8.72244 132.965 8.35961L135.391 2.97158H138.629V14.4987H135.979V9.68394C135.979 9.41544 135.993 9.11429 136.018 8.78774C136.043 8.4612 136.075 8.12739 136.107 7.78996C136.139 7.45253 136.174 7.11873 136.214 6.79218C136.253 6.46563 136.292 6.16811 136.331 5.89599H136.253L135.07 8.60633L132.822 13.4501H131.144L128.875 8.60633L127.71 5.89599H127.631C127.67 6.16448 127.71 6.46563 127.749 6.79218C127.788 7.11873 127.827 7.45253 127.866 7.78996C127.906 8.12739 127.941 8.4612 127.966 8.78774C127.995 9.11429 128.005 9.41181 128.005 9.68394V14.4987H125.355V2.97158H125.362Z" fill="black"/>
<path d="M147.126 11.538H142.381L141.351 14.4987H138.387L143.075 2.97158H146.513L151.219 14.4987H148.156L147.126 11.538ZM146.495 9.74924L146.061 8.4866C145.836 7.8843 145.623 7.26023 145.419 6.61802C145.216 5.97581 145.003 5.34086 144.778 4.71679H144.7C144.515 5.35174 144.319 5.9867 144.105 6.62528C143.891 7.26386 143.677 7.8843 143.453 8.4866L143.018 9.74924H146.495Z" fill="black"/>
<path d="M152.345 4.90183H148.234V2.97158H159.424V4.90183H155.274V14.4987H152.349V4.90183H152.345Z" fill="black"/>
<path d="M159.82 2.97158H162.745V14.4987H159.82V2.97158Z" fill="black"/>
<path d="M170.337 14.7164C169.414 14.7164 168.545 14.5858 167.729 14.3282C166.913 14.0706 166.2 13.6896 165.595 13.1925C164.989 12.6954 164.512 12.075 164.163 11.3384C163.813 10.6019 163.639 9.74924 163.639 8.78412C163.639 7.84076 163.82 6.99174 164.184 6.24431C164.547 5.49688 165.035 4.86192 165.655 4.34308C166.275 3.82423 166.995 3.42875 167.821 3.16025C168.644 2.89176 169.517 2.75388 170.44 2.75388C171.377 2.75388 172.207 2.90264 172.93 3.19653C173.653 3.49405 174.255 3.83874 174.729 4.2306L173.187 5.69643C172.816 5.41705 172.417 5.18484 171.982 5.00343C171.548 4.82201 171.053 4.73131 170.5 4.73131C169.948 4.73131 169.432 4.82201 168.958 5.00343C168.484 5.18484 168.074 5.44608 167.732 5.79077C167.39 6.13183 167.119 6.54908 166.924 7.03528C166.724 7.5251 166.628 8.08023 166.628 8.70067C166.628 9.32111 166.717 9.88349 166.895 10.3842C167.073 10.8813 167.33 11.3058 167.665 11.6541C167.999 12.0024 168.402 12.2673 168.869 12.4487C169.335 12.6301 169.859 12.7208 170.44 12.7208C171.074 12.7208 171.637 12.6156 172.129 12.4015C172.624 12.1875 173.069 11.9153 173.465 11.5852L175.007 13.0183C174.402 13.5771 173.71 14.0016 172.93 14.2882C172.146 14.5749 171.284 14.7164 170.337 14.7164Z" fill="black"/>
<path fill-rule="evenodd" clip-rule="evenodd" d="M94.342 18H111.888C116.769 18 120.727 13.969 120.727 8.99819C120.727 4.02741 116.769 -0.00362778 111.888 -0.00362778H94.342C89.4612 -0.00362778 85.5031 4.02741 85.5031 8.99819C85.5031 13.969 89.4612 18 94.342 18ZM99.9817 15.5654C100.922 15.8883 101.966 16.0516 103.117 16.0516C104.25 16.0516 105.294 15.8883 106.238 15.569C107.185 15.2425 108.001 14.7708 108.685 14.154C109.369 13.5372 109.896 12.7898 110.271 11.9153C110.645 11.0409 110.83 10.054 110.83 8.95102C110.83 7.84802 110.645 6.86475 110.271 5.99395C109.896 5.12316 109.369 4.39387 108.685 3.79883C108.001 3.20379 107.185 2.75025 106.238 2.43096C105.29 2.11167 104.25 1.95203 103.117 1.95203C101.966 1.95203 100.922 2.10804 99.9817 2.42008C99.0447 2.73211 98.2324 3.18928 97.5484 3.78795C96.8644 4.38662 96.3371 5.12316 95.963 5.99032C95.5889 6.86112 95.4037 7.84801 95.4037 8.94739C95.4037 10.0468 95.5889 11.0373 95.963 11.9117C96.3371 12.7861 96.8644 13.5336 97.5484 14.1504C98.2288 14.7708 99.0411 15.2425 99.9817 15.5654ZM104.852 13.3703C104.332 13.5916 103.754 13.7005 103.117 13.7005C102.479 13.7005 101.902 13.5916 101.382 13.3703C100.862 13.149 100.416 12.8333 100.053 12.416C99.6895 11.9988 99.4081 11.4981 99.2157 10.9103C99.0197 10.3261 98.9236 9.66942 98.9236 8.94739C98.9236 7.47793 99.2976 6.33501 100.053 5.51502C100.805 4.69502 101.827 4.28502 103.117 4.28502C104.406 4.28502 105.425 4.69502 106.181 5.51502C106.932 6.33501 107.31 7.47793 107.31 8.94739C107.31 9.66942 107.21 10.3225 107.018 10.9103C106.825 11.4981 106.544 11.9988 106.181 12.416C105.814 12.8333 105.372 13.149 104.852 13.3703Z" fill="black"/>
</g>
<defs>
<clipPath id="clip0">
<rect width="175" height="18" fill="white"/>
</clipPath>
</defs>
</svg>
