<svg width="17" height="19" viewBox="0 0 17 19" fill="none" xmlns="http://www.w3.org/2000/svg">
<path fill-rule="evenodd" clip-rule="evenodd" d="M8.5 18.6907C3.80558 18.6907 0 14.63 0 9.62091C0 4.61178 3.80558 0.551086 8.5 0.551086C13.1944 0.551086 17 4.61178 17 9.62091C17 14.63 13.1944 18.6907 8.5 18.6907ZM8.78017 14.667C11.5669 14.6657 13.8334 12.2467 13.8345 9.2738C13.835 7.83277 13.3098 6.47777 12.3555 5.45839C11.4013 4.43897 10.1322 3.87731 8.78012 3.87669C5.99421 3.87669 3.72682 6.29595 3.72571 9.26955C3.72533 10.2201 3.95807 11.1479 4.40038 11.9658L3.68333 14.7605L6.36273 14.0105C7.10097 14.4402 7.93217 14.6666 8.77808 14.667H8.78017Z" fill="#C1C1C1"/>
<path fill-rule="evenodd" clip-rule="evenodd" d="M6.48689 13.0341L4.8969 13.4792L5.32129 11.825L5.2214 11.6554C4.80088 10.9417 4.57878 10.1168 4.5791 9.26984C4.58002 6.79832 6.4646 4.78759 8.78184 4.78759C9.90393 4.78801 10.9587 5.25486 11.7519 6.10217C12.545 6.94948 12.9816 8.0757 12.9811 9.27347C12.9802 11.7452 11.0956 13.7561 8.78019 13.7561H8.77849C8.02465 13.7558 7.28529 13.5397 6.64029 13.1313L6.48689 13.0341ZM11.3265 10.5563C11.295 10.5001 11.2108 10.4663 11.0845 10.3989C10.9582 10.3314 10.3373 10.0054 10.2215 9.96042C10.1058 9.91547 10.0216 9.89301 9.93738 10.0279C9.85321 10.1628 9.61117 10.4663 9.5375 10.5563C9.46383 10.6462 9.39015 10.6575 9.26391 10.59C9.13762 10.5225 8.73068 10.3803 8.24829 9.92113C7.87285 9.56379 7.61939 9.12252 7.54572 8.98761C7.47205 8.85269 7.53787 8.77979 7.60109 8.71259C7.65791 8.65219 7.72739 8.55516 7.79053 8.47649C7.85368 8.39783 7.87472 8.34158 7.91682 8.25171C7.95891 8.16173 7.93787 8.08306 7.90629 8.01561C7.87472 7.94815 7.62215 7.28484 7.51691 7.01502C7.41439 6.75225 7.31028 6.78784 7.23277 6.78369C7.15918 6.77975 7.0749 6.77892 6.99072 6.77892C6.90653 6.77892 6.7697 6.81265 6.65394 6.94756C6.53818 7.08247 6.21193 7.4085 6.21193 8.07175C6.21193 8.73506 6.66446 9.37585 6.72761 9.46577C6.79075 9.55575 7.61814 10.9169 8.88503 11.5006C9.18634 11.6394 9.42157 11.7223 9.605 11.7844C9.90752 11.887 10.1829 11.8725 10.4004 11.8378C10.6431 11.7992 11.1476 11.5119 11.2529 11.1971C11.3581 10.8823 11.3581 10.6124 11.3265 10.5563Z" fill="#C1C1C1"/>
</svg>
