<svg width="18" height="18" viewBox="0 0 18 18" fill="none" xmlns="http://www.w3.org/2000/svg">
<path fill-rule="evenodd" clip-rule="evenodd" d="M9 18C4.02944 18 0 13.9706 0 9C0 4.02944 4.02944 0 9 0C13.9706 0 18 4.02944 18 9C18 13.9706 13.9706 18 9 18ZM9.29665 14.0072C12.2473 14.006 14.6471 11.6056 14.6483 8.65556C14.6489 7.22563 14.0927 5.88106 13.0823 4.86953C12.0719 3.85795 10.7282 3.30062 9.2966 3.3C6.34681 3.3 3.94604 5.70063 3.94487 8.65134C3.94447 9.59456 4.1909 10.5152 4.65923 11.3268L3.9 14.1L6.73701 13.3558C7.51868 13.7822 8.39876 14.0069 9.29444 14.0072H9.29665Z" fill="#C1C1C1"/>
</svg>
