<svg width="18" height="19" viewBox="0 0 18 19" fill="none" xmlns="http://www.w3.org/2000/svg">
<path fill-rule="evenodd" clip-rule="evenodd" d="M0.666504 9.62091C0.666504 4.61178 4.47208 0.551086 9.1665 0.551086C13.8609 0.551086 17.6665 4.61178 17.6665 9.62091C17.6665 14.63 13.8609 18.6907 9.1665 18.6907C4.47208 18.6907 0.666504 14.63 0.666504 9.62091ZM13.5104 7.38112C13.4061 6.95371 13.0989 6.61713 12.7087 6.5029C12.0017 6.29531 9.1665 6.29531 9.1665 6.29531C9.1665 6.29531 6.33126 6.29531 5.62422 6.5029C5.23409 6.61713 4.92686 6.95371 4.82259 7.38112C4.63317 8.15577 4.63317 9.77207 4.63317 9.77207C4.63317 9.77207 4.63317 11.3883 4.82259 12.163C4.92686 12.5904 5.23409 12.927 5.62422 13.0413C6.33126 13.2488 9.1665 13.2488 9.1665 13.2488C9.1665 13.2488 12.0017 13.2488 12.7087 13.0413C13.0989 12.927 13.4061 12.5904 13.5104 12.163C13.6998 11.3883 13.6998 9.77207 13.6998 9.77207C13.6998 9.77207 13.6998 8.15577 13.5104 7.38112Z" fill="#C1C1C1"/>
<path fill-rule="evenodd" clip-rule="evenodd" d="M8.31641 11.4349V8.41159L10.5831 9.92329L8.31641 11.4349Z" fill="#C1C1C1"/>
</svg>
